<?xml version="1.0" standalone="no"?>
<!DOCTYPE svg PUBLIC "-//W3C//DTD SVG 20010904//EN"
 "http://www.w3.org/TR/2001/REC-SVG-20010904/DTD/svg10.dtd">
<svg version="1.0" xmlns="http://www.w3.org/2000/svg"
 width="500.000000pt" height="500.000000pt" viewBox="0 0 500.000000 500.000000"
 preserveAspectRatio="xMidYMid meet">

<g transform="translate(0.000000,500.000000) scale(0.100000,-0.100000)"
fill="#000000" stroke="none">
<path d="M2302 4963 c-43 -3 -65 -9 -69 -18 -6 -17 -33 -20 -33 -4 0 22 -283
-35 -465 -96 -147 -48 -280 -105 -267 -114 15 -11 22 -41 13 -64 -6 -16 -3
-27 11 -42 18 -19 19 -19 12 -1 -5 14 -4 17 5 12 9 -6 11 4 9 41 -2 28 -8 48
-15 48 -6 0 -15 4 -20 9 -5 5 -3 6 5 2 7 -4 12 -2 12 6 1 8 6 6 15 -6 10 -13
15 -44 15 -93 l0 -73 -27 16 c-22 13 -20 10 7 -13 31 -27 35 -37 35 -78 0 -40
-5 -51 -33 -76 -51 -45 -122 -36 -155 21 -32 53 -18 107 34 139 17 11 26 22
21 25 -6 3 -17 -1 -25 -9 -19 -19 -27 -19 -27 -1 0 8 6 16 13 19 16 6 22 87 7
87 -5 0 -11 -19 -12 -42 -1 -37 -2 -39 -5 -10 -2 17 -9 32 -14 32 -31 0 -321
-190 -404 -264 l-50 -45 52 26 c84 41 182 31 262 -26 36 -26 77 -105 85 -161
l5 -45 -12 40 c-17 57 -27 71 -39 54 -6 -10 -7 -7 -3 9 4 12 2 22 -4 22 -5 0
-12 8 -14 18 -3 10 -5 6 -6 -11 -1 -22 -7 -29 -32 -34 -17 -3 -33 -12 -36 -19
-3 -8 -14 -14 -24 -14 -10 0 -19 -4 -19 -10 0 -5 -7 -10 -16 -10 -9 0 -12 -5
-8 -12 5 -9 2 -9 -9 1 -9 7 -17 10 -17 5 0 -5 -5 -2 -10 6 -5 8 -10 10 -10 4
0 -7 -7 -15 -16 -18 -14 -5 -15 -4 -5 8 9 11 3 16 -36 26 -40 10 -45 14 -28
20 l20 9 -20 0 c-17 1 -20 9 -23 48 -1 26 -5 49 -8 52 -3 3 -23 -14 -45 -37
-30 -34 -41 -58 -50 -105 -7 -34 -14 -56 -17 -49 -8 25 19 116 48 159 l30 45
-70 -64 c-83 -74 -207 -213 -301 -337 -247 -329 -409 -731 -470 -1171 -19
-135 -17 -496 4 -633 103 -675 428 -1228 964 -1639 42 -32 79 -56 83 -53 4 3
10 -1 13 -9 8 -21 176 -122 312 -187 229 -111 473 -186 730 -225 168 -25 522
-26 690 0 264 40 499 114 751 236 142 69 371 214 454 288 25 22 81 72 125 110
89 78 206 209 306 341 243 323 400 707 466 1138 20 137 23 498 5 633 -39 279
-123 556 -240 791 l-77 154 -163 2 -163 2 73 -56 c81 -61 98 -79 98 -102 0 -9
-3 -12 -8 -6 -4 6 -27 25 -52 44 -25 19 -65 51 -89 70 -29 23 -42 30 -38 19
12 -32 -2 -19 -20 20 -15 31 -18 34 -21 15 -4 -30 -31 -51 -41 -34 -5 7 -20
14 -34 14 -14 1 -23 7 -20 12 2 6 -4 1 -14 -10 -32 -33 -88 -81 -74 -62 19 25
5 21 -35 -9 -19 -15 -34 -21 -34 -15 0 6 25 30 55 54 l55 42 -98 6 c-53 3
-110 12 -127 19 -50 22 -6 24 131 5 116 -16 144 -15 144 4 0 4 -22 20 -50 35
-50 27 -67 43 -56 53 3 3 32 -10 65 -30 64 -40 76 -43 87 -25 5 8 2 9 -9 5
-12 -5 -17 -1 -17 12 0 34 12 51 35 51 25 0 43 -18 29 -29 -11 -8 -15 -43 -4
-36 5 3 10 0 12 -6 2 -7 25 3 56 25 28 21 60 36 69 34 13 -3 0 -16 -44 -44
-92 -59 -79 -65 115 -57 89 3 162 9 162 13 0 3 -27 46 -61 96 -140 206 -313
393 -501 545 -96 77 -242 179 -257 179 -4 0 -29 -34 -56 -76 -49 -75 -171
-201 -217 -224 -13 -7 5 14 39 45 82 74 110 113 93 128 -10 9 -11 9 -6 0 4 -8
-5 -18 -26 -28 -18 -8 -64 -36 -103 -60 -51 -33 -79 -45 -107 -45 -39 0 -49
15 -26 38 16 16 -4 16 -21 0 -29 -28 8 28 63 94 64 77 161 147 239 172 34 11
15 28 -86 76 -403 193 -804 269 -1275 243z m602 -72 c3 -5 24 -7 45 -4 41 6
162 -13 194 -29 19 -10 21 -68 2 -68 -5 0 -47 8 -93 17 -77 16 -86 16 -146 0
-95 -25 -106 -23 -106 16 0 25 6 35 27 45 15 6 38 12 52 12 21 0 23 2 11 10
-9 6 -10 10 -3 10 6 0 14 -4 17 -9z m-906 -53 c16 -16 15 -53 -2 -67 -17 -15
-50 -1 -60 24 -14 39 33 72 62 43z m408 -3 c-4 -12 1 -14 33 -9 32 5 39 3 43
-14 4 -15 12 -19 31 -15 14 3 36 -2 49 -11 14 -9 28 -13 33 -9 4 5 5 3 2 -4
-4 -6 0 -18 8 -26 19 -20 20 -33 0 -17 -10 8 -15 9 -15 2 0 -6 6 -15 13 -19
28 -18 39 -41 28 -61 -7 -13 -7 -22 2 -31 9 -10 9 -11 -3 -6 -9 3 -28 -8 -48
-30 -28 -29 -31 -38 -22 -55 15 -27 27 -18 28 21 0 17 4 35 9 40 12 12 9 -53
-4 -76 -9 -16 -14 -17 -26 -6 -13 10 -20 9 -41 -4 -21 -14 -26 -14 -27 -4 0
11 -2 11 -6 1 -2 -6 -10 -9 -16 -5 -6 3 -32 5 -57 4 -34 -1 -51 3 -61 15 -12
16 -12 17 1 9 13 -8 13 -6 2 8 -8 9 -11 21 -7 27 3 5 0 17 -9 25 -18 18 -30
20 -20 3 5 -10 4 -10 -6 -1 -30 28 -21 124 15 157 13 12 25 28 27 36 2 8 9 21
16 28 7 8 9 18 6 24 -4 7 -2 8 4 4 7 -4 12 -2 12 3 0 6 3 11 6 11 3 0 4 -7 0
-15z m114 -10 c11 -13 10 -14 -4 -9 -10 4 -16 1 -16 -7 0 -7 -2 -10 -5 -7 -5
5 4 38 10 38 1 0 8 -7 15 -15z m65 -3 c-3 -3 -11 0 -18 7 -9 10 -8 11 6 5 10
-3 15 -9 12 -12z m-476 -26 c-3 -3 -11 5 -18 17 -13 21 -12 21 5 5 10 -10 16
-20 13 -22z m-309 -11 c24 -13 30 -22 30 -49 0 -21 8 -40 21 -52 11 -10 26
-28 31 -39 10 -19 9 -19 -13 2 -54 49 -139 57 -207 18 -38 -21 -41 -22 -32 -5
6 11 20 25 31 31 16 8 19 17 15 35 -5 18 0 31 18 49 29 29 64 32 106 10z
m1280 -13 l65 -17 1 -45 c2 -32 0 -39 -6 -25 -7 17 -9 17 -9 3 -1 -10 -4 -17
-8 -16 -17 6 -55 -31 -50 -46 6 -14 -4 -21 -25 -17 -4 0 -5 -13 -1 -29 5 -28
3 -30 -23 -32 -16 -1 -50 0 -75 1 -51 3 -83 -19 -60 -42 10 -9 11 -8 6 6 -4
10 -2 17 5 17 6 0 8 -4 5 -10 -3 -5 -1 -10 4 -10 6 0 11 -7 11 -16 0 -9 -5
-13 -12 -10 -7 3 -21 9 -31 12 -11 4 -16 13 -12 21 3 11 1 13 -10 9 -8 -3 -15
-1 -15 4 0 6 5 10 12 10 6 0 8 3 5 6 -4 4 -13 2 -20 -4 -11 -9 -16 -6 -25 13
-7 15 -8 25 -2 25 6 0 10 -7 10 -15 0 -13 4 -14 22 -4 16 9 23 9 26 0 6 -19
32 -12 32 9 0 11 0 22 0 25 0 3 -3 4 -7 3 -5 -2 -8 -7 -7 -13 1 -12 -43 -12
-68 -1 -15 7 -18 22 -18 92 l0 84 28 0 c15 0 47 7 72 14 59 19 101 18 180 -2z
m-1086 -56 c-1 -9 4 -16 12 -16 8 0 14 -10 14 -25 0 -14 -4 -25 -10 -25 -5 0
-10 -11 -10 -25 0 -20 -5 -25 -25 -25 -14 0 -25 6 -25 13 0 6 -3 29 -6 50 -5
30 -4 37 10 37 10 0 16 8 16 21 0 12 5 19 13 16 6 -2 11 -12 11 -21z m136 -1
c0 -7 5 -15 11 -17 8 -3 10 -19 5 -51 -6 -40 -11 -47 -30 -47 -18 0 -26 9 -36
41 -12 36 -12 43 1 53 8 6 18 19 22 29 7 20 27 14 27 -8z m-304 -76 c19 -11
32 -25 28 -30 -3 -5 -18 0 -34 11 -36 26 -95 26 -137 0 -35 -21 -44 -13 -15
13 45 41 99 43 158 6z m1512 -1 c19 -19 14 -25 -17 -25 -26 0 -29 3 -20 19 11
21 20 23 37 6z m-1531 -39 c26 -22 13 -28 -23 -12 -33 16 -37 16 -65 1 -16 -9
-31 -13 -34 -8 -3 5 7 16 22 25 29 16 76 13 100 -6z m-27 -34 c10 -12 10 -15
-4 -15 -9 0 -16 -7 -16 -15 0 -8 -4 -15 -10 -15 -5 0 -10 6 -10 14 0 8 -6 17
-12 19 -10 4 -9 8 2 16 21 15 35 14 50 -4z m1322 -41 c-9 -13 -23 -21 -29 -19
-7 2 -13 -2 -13 -9 0 -8 -11 -21 -25 -30 -14 -9 -25 -13 -25 -9 0 4 -6 -2 -14
-12 -14 -19 -15 -19 -33 -2 -11 9 -25 17 -31 17 -14 0 -15 10 -3 29 6 10 13 6
27 -18 20 -34 34 -40 34 -16 0 9 8 19 17 22 9 4 25 14 36 23 11 10 27 24 36
32 26 23 42 18 23 -8z m300 -51 c-26 -27 -56 -59 -66 -73 l-18 -25 16 28 c9
15 23 38 32 52 l16 25 -33 -12 c-19 -6 -40 -16 -48 -22 -12 -9 -13 -8 -7 4 6
11 4 11 -6 -1 -7 -9 -27 -23 -44 -32 -18 -9 -48 -36 -67 -59 -20 -23 -39 -40
-42 -36 -3 3 31 44 77 90 87 89 117 105 195 107 l43 1 -48 -47z m-2169 -3 c-6
-24 -12 -25 -28 -3 -9 12 -9 20 -1 29 15 17 35 -1 29 -26z m539 26 c26 -19 12
-26 -50 -26 -54 0 -55 0 -37 20 21 23 62 26 87 6z m723 -26 c-3 -5 -12 -10
-18 -10 -7 0 -6 4 3 10 19 12 23 12 15 0z m-638 -32 c-3 -7 -5 -2 -5 12 0 14
2 19 5 13 2 -7 2 -19 0 -25z m410 -4 l28 -25 -31 21 c-32 22 -72 22 -103 -2
-9 -7 -6 -3 7 10 31 29 64 28 99 -4z m-522 6 c17 -7 15 -9 -12 -9 -18 -1 -33
4 -33 9 0 12 17 12 45 0z m1017 -7 c38 -44 39 -59 9 -92 -16 -17 -39 -31 -50
-31 -29 0 -71 43 -71 71 0 54 79 90 112 52z m-537 -23 c8 0 11 -7 8 -20 -6
-24 15 -53 34 -46 8 4 11 1 8 -5 -4 -6 -13 -8 -21 -5 -7 3 -16 0 -20 -5 -4 -7
-10 -7 -16 -1 -6 6 -16 8 -23 5 -16 -6 -40 33 -25 42 5 3 6 13 3 22 -4 10 -2
14 4 10 6 -4 14 1 18 11 5 11 9 13 12 5 3 -7 11 -13 18 -13z m-706 -256 c-29
-36 -49 -9 -49 65 0 26 -5 52 -12 59 -14 14 -6 24 14 17 11 -4 15 -22 14 -68
-1 -49 2 -62 14 -62 12 0 16 23 20 125 l5 125 3 -124 c2 -82 -1 -128 -9 -137z
m-139 6 c16 0 12 -17 -5 -24 -13 -5 -15 13 -13 132 l2 137 3 -122 c2 -71 8
-123 13 -123z m757 208 c-3 -7 -5 -2 -5 12 0 14 2 19 5 13 2 -7 2 -19 0 -25z
m155 0 c-8 -8 -9 -4 -5 13 4 13 8 18 11 10 2 -7 -1 -18 -6 -23z m211 -12 c14
-18 48 -55 74 -81 l48 -48 -58 48 c-32 26 -59 46 -61 44 -2 -2 -6 -31 -8 -65
-3 -34 -8 -66 -12 -73 -4 -6 -4 -11 1 -10 20 3 25 -2 13 -16 -7 -9 -10 -19 -6
-22 4 -4 11 -1 16 7 6 8 10 10 10 5 0 -6 -6 -17 -12 -24 -11 -11 -10 -13 5 -8
10 4 17 1 17 -7 0 -7 11 -23 25 -36 26 -25 24 -45 -5 -37 -12 3 -21 -5 -31
-29 -7 -19 -16 -34 -21 -34 -10 0 -9 -38 1 -63 5 -15 16 -5 56 52 26 39 50 71
53 71 5 0 -18 -36 -60 -94 -29 -40 -36 -66 -18 -66 6 0 9 -3 8 -7 -6 -32 35
-56 57 -34 6 6 10 -5 10 -31 l0 -42 -105 -1 c-58 -1 -117 -5 -132 -9 -21 -7
-27 -4 -32 12 -4 11 -4 32 0 46 6 24 7 25 30 9 35 -23 78 -3 72 32 -3 13 0 26
6 28 7 3 3 20 -12 48 -22 41 -22 42 -2 17 27 -35 50 -36 50 -3 0 14 -3 25 -8
25 -13 0 -36 64 -36 102 -1 25 -8 42 -21 53 -19 14 -19 15 7 5 26 -9 28 -7 34
27 6 33 -13 143 -25 143 -3 0 -16 -12 -29 -27 l-24 -28 21 36 c34 59 25 57
-44 -11 -53 -53 -64 -68 -61 -92 2 -15 9 -34 15 -42 8 -10 9 -16 1 -21 -6 -4
-9 -3 -8 2 4 15 -22 53 -37 53 -21 0 -19 29 3 37 22 7 162 144 162 158 0 15
21 35 36 35 6 0 23 -15 37 -34z m785 27 c-10 -2 -26 -2 -35 0 -10 3 -2 5 17 5
19 0 27 -2 18 -5z m462 -23 c0 -5 -5 -10 -11 -10 -5 0 -7 5 -4 10 3 6 8 10 11
10 2 0 4 -4 4 -10z m-2112 -20 c-15 -24 -38 -34 -38 -17 0 17 20 37 37 37 11
0 11 -4 1 -20z m77 8 c29 -13 29 -37 0 -53 -11 -6 -21 -16 -23 -24 -1 -7 2
-10 9 -5 8 4 9 -1 4 -17 -9 -28 -25 -49 -25 -31 0 7 -9 12 -20 12 -17 0 -20 7
-20 49 0 41 4 51 20 56 11 3 20 11 20 16 0 12 4 11 35 -3z m645 -13 c0 -8 -4
-15 -9 -15 -13 0 -22 16 -14 24 11 11 23 6 23 -9z m1012 -70 c13 -8 17 -15 11
-15 -18 0 -53 50 -52 74 1 15 4 12 10 -11 5 -18 19 -39 31 -48z m232 48 c-14
-64 -26 -91 -50 -114 -22 -21 -24 -21 -18 -4 4 11 16 31 25 45 10 14 21 39 25
55 l7 30 -29 -26 c-35 -31 -113 -88 -98 -71 17 20 129 110 137 111 4 1 5 -11
1 -26z m-984 -9 c0 -8 -4 -12 -10 -9 -5 3 -10 10 -10 16 0 5 5 9 10 9 6 0 10
-7 10 -16z m595 -24 c-44 -45 -144 -121 -176 -132 -29 -11 83 90 149 135 31
20 59 37 61 37 3 0 -13 -18 -34 -40z m-1775 9 c0 -4 -7 -9 -15 -13 -11 -4 -16
-22 -17 -63 l-1 -58 -6 65 c-4 36 -5 67 -4 70 2 8 43 7 43 -1z m1579 -2 c13
-16 5 -27 -21 -27 -18 0 -25 20 -11 33 10 10 19 8 32 -6z m-1099 -13 c0 -8 -5
-12 -10 -9 -6 4 -8 11 -5 16 9 14 15 11 15 -7z m984 -10 c27 -28 31 -40 20
-69 -5 -13 -11 -8 -25 22 -18 35 -21 21 -4 -19 5 -13 2 -18 -9 -18 -9 0 -16
-7 -16 -15 0 -8 -4 -15 -10 -15 -5 0 -10 7 -10 15 0 8 5 15 10 15 6 0 10 10 9
23 0 12 -3 16 -6 10 -2 -7 -11 -13 -20 -13 -10 0 -12 6 -8 21 4 13 3 19 -3 15
-5 -3 -12 -19 -15 -36 -7 -34 -27 -41 -27 -10 0 28 35 60 60 55 11 -2 20 0 20
6 0 15 -47 10 -69 -9 -29 -22 -32 -79 -6 -98 10 -8 16 -16 13 -19 -7 -7 -46
37 -48 55 -10 68 20 110 79 110 28 0 45 -7 65 -26z m586 21 c0 -2 -10 -9 -22
-15 -22 -11 -22 -10 -4 4 21 17 26 19 26 11z m-152 -35 l22 -29 -77 -46 c-43
-25 -81 -45 -86 -45 -12 0 70 117 95 134 12 9 23 16 23 16 1 0 11 -13 23 -30z
m521 3 c1 20 8 21 41 2 23 -13 27 -12 41 7 14 18 17 19 22 4 5 -11 3 -15 -5
-10 -8 5 -9 2 -5 -10 5 -12 3 -15 -6 -10 -8 6 -8 3 1 -8 8 -9 20 -14 28 -11 8
3 14 0 14 -7 0 -6 5 -8 11 -4 8 5 8 1 0 -13 -11 -21 -6 -33 13 -33 6 0 5 4 -2
9 -11 7 -11 9 1 14 19 7 16 -21 -4 -34 -11 -7 -11 -9 -1 -9 7 0 10 -5 6 -12
-4 -7 -3 -8 4 -4 16 10 10 -27 -7 -48 -11 -13 -11 -16 0 -17 10 0 11 -2 1 -6
-6 -2 -10 -9 -7 -13 3 -5 -4 -14 -15 -20 -11 -6 -18 -15 -15 -21 4 -5 3 -9 -2
-8 -19 3 -34 -2 -28 -10 3 -5 0 -13 -6 -17 -8 -4 -9 -3 -5 4 9 15 5 15 -29 2
-17 -7 -24 -7 -20 0 3 6 -1 10 -10 10 -9 0 -13 -4 -10 -10 4 -6 -1 -7 -11 -3
-12 5 -15 3 -9 -6 6 -11 3 -11 -16 -1 -33 17 -38 24 -12 16 12 -4 24 -3 26 1
8 13 -55 14 -72 1 -12 -9 -12 -7 1 7 16 17 16 19 0 32 -9 8 -11 12 -4 8 17 -9
15 1 -5 21 -19 19 -25 84 -8 84 5 0 1 8 -10 17 -20 15 -20 15 2 10 24 -5 31 5
28 41 -1 15 3 21 11 18 10 -4 11 1 3 22 l-9 27 20 -25 c15 -19 18 -20 13 -6
-4 13 -3 17 5 12 6 -3 14 3 18 16 l8 23 7 -25 c4 -16 7 -19 8 -7z m-1937 -65
c-5 -109 -8 -116 -13 -25 -2 54 0 87 6 87 6 0 9 -26 7 -62z m98 19 c32 -22 49
-22 76 4 25 23 60 19 51 -5 -3 -8 -1 -17 6 -20 7 -3 2 -3 -10 -1 -33 9 -38
-13 -8 -42 24 -24 24 -27 8 -36 -22 -13 -153 -22 -187 -13 -25 6 -26 7 -10 31
9 14 14 34 11 45 -3 11 -1 20 5 20 5 0 6 5 3 10 -8 13 2 29 18 26 6 -1 23 -9
37 -19z m354 11 c-4 -7 -16 -22 -26 -34 -19 -21 -19 -21 12 -34 17 -7 29 -14
27 -16 -2 -3 -20 2 -39 11 l-36 14 32 35 c33 37 42 44 30 24z m1384 -29 c-11
-7 -10 -9 1 -9 8 0 12 -3 8 -6 -3 -3 -14 -1 -24 5 -11 6 -13 11 -5 11 7 0 10
4 7 10 -3 6 1 7 10 3 13 -5 14 -7 3 -14z m-1052 -11 c16 -12 6 -48 -12 -41 -8
3 -14 -1 -14 -9 0 -8 -10 -23 -21 -34 l-22 -19 18 34 c9 18 15 46 13 61 -4 28
9 31 38 8z m-839 -70 c-2 -13 -4 -3 -4 22 0 25 2 35 4 23 2 -13 2 -33 0 -45z
m1512 25 c-20 -21 -52 -56 -73 -78 -31 -33 -37 -36 -31 -16 l7 24 -38 -23
c-22 -13 -34 -18 -29 -13 15 16 187 143 194 143 3 0 -11 -17 -30 -37z m-488 7
c-13 -11 -35 -20 -50 -19 -23 1 -22 2 7 9 19 4 39 13 45 19 6 6 13 11 17 11 3
-1 -6 -10 -19 -20z m-1091 -113 c47 -28 88 -55 92 -61 4 -6 8 -63 8 -126 l0
-115 -33 -22 c-41 -27 -187 -113 -193 -113 -2 0 -4 20 -4 43 0 38 -4 45 -27
56 -16 7 -49 26 -75 43 l-48 30 0 82 c0 79 -1 83 -26 94 l-25 12 3 -120 c2
-66 0 -120 -4 -120 -5 0 -8 60 -8 133 l0 134 108 60 c87 49 111 58 127 50 11
-6 58 -33 105 -60z m-433 -89 c-2 -29 -3 -8 -3 47 0 55 1 79 3 53 2 -26 2 -71
0 -100z m1013 81 c17 -28 27 -48 22 -45 -4 3 -23 28 -40 56 -18 28 -28 49 -23
45 5 -3 23 -28 41 -56z m1098 24 c15 -10 29 -20 32 -24 3 -3 12 -9 20 -12 13
-4 12 -6 -1 -6 -9 -1 -22 6 -29 14 -7 8 -17 15 -23 15 -12 0 -117 -49 -134
-62 -26 -21 -2 -25 34 -7 21 10 46 19 58 18 14 0 15 -2 5 -6 -45 -16 -99 -46
-95 -53 3 -4 22 1 42 11 21 10 44 19 53 18 8 0 -5 -8 -29 -17 -24 -9 -46 -23
-49 -31 -3 -10 6 -8 30 7 42 26 123 29 152 7 14 -11 23 -12 33 -4 7 6 13 15
13 19 0 13 -88 43 -110 37 -17 -4 -20 -1 -19 26 1 24 3 26 6 10 3 -16 11 -23
27 -23 52 0 131 -49 106 -65 -8 -5 -6 -14 7 -28 l18 -22 -22 19 c-25 21 -29
16 -12 -17 11 -21 11 -21 -7 -6 -22 20 -64 9 -64 -16 0 -8 -5 -15 -11 -15 -7
0 -9 -9 -5 -24 4 -18 1 -25 -14 -29 -11 -3 -22 -1 -26 4 -9 16 -45 31 -42 18
5 -20 -32 -18 -42 2 -8 14 -6 27 5 48 9 19 11 32 5 36 -6 3 -10 -1 -10 -10 0
-9 -4 -14 -10 -10 -5 3 -16 -7 -24 -22 -8 -15 -15 -23 -16 -18 0 6 7 20 15 31
12 18 12 24 1 40 -12 16 -16 16 -30 5 -14 -12 -16 -12 -10 3 3 9 10 16 16 16
5 0 6 5 3 10 -11 18 -24 10 -45 -27 -12 -21 -18 -29 -14 -18 4 11 12 35 18 53
6 17 16 32 23 32 17 0 105 42 121 58 7 6 19 12 25 13 7 0 3 4 -8 9 -11 5 -14
9 -7 9 7 1 25 -7 40 -16z m39 11 c-3 -3 -12 -4 -19 -1 -8 3 -5 6 6 6 11 1 17
-2 13 -5z m-1242 -34 c-4 -12 -2 -27 4 -34 16 -20 3 -45 -20 -39 -24 7 -25 37
-1 68 21 30 25 31 17 5z m1878 -28 c-5 -22 -6 -22 -19 -3 -8 11 -11 27 -8 36
10 26 35 -4 27 -33z m-2923 25 c0 -2 -12 -14 -27 -28 l-28 -24 24 28 c23 25
31 32 31 24z m920 -47 c15 -28 12 -56 -10 -97 -11 -21 -20 -30 -20 -21 0 9 5
20 10 23 6 3 10 21 10 38 l0 32 -56 -3 c-61 -4 -61 -4 -40 -77 4 -11 -3 0 -15
24 -26 55 -19 88 23 105 37 16 83 4 98 -24z m530 18 c0 -6 -7 -7 -16 -4 -9 3
-18 6 -20 6 -3 0 -3 4 1 10 7 11 35 2 35 -12z m933 -6 c18 -3 32 -13 38 -29
13 -35 11 -40 -7 -17 -15 19 -16 19 -10 -1 4 -15 -1 -12 -22 11 -15 17 -36 36
-47 43 l-20 13 20 -8 c11 -4 33 -9 48 -12z m-1426 -119 c-2 -21 -4 -4 -4 37 0
41 2 58 4 38 2 -21 2 -55 0 -75z m-1532 70 c8 -35 43 -126 88 -225 20 -42 33
-79 30 -82 -4 -3 -70 -6 -149 -6 -104 0 -143 3 -147 13 -2 6 15 53 39 102 36
75 66 145 89 213 9 24 44 13 50 -15z m1342 -70 c-2 -21 -4 -6 -4 32 0 39 2 55
4 38 2 -18 2 -50 0 -70z m673 82 c0 -8 -2 -15 -4 -15 -2 0 -12 -3 -21 -6 -15
-6 -15 -4 -4 15 16 25 29 27 29 6z m880 -10 c33 -19 21 -19 -21 0 -19 8 -27
14 -19 14 8 0 26 -6 40 -14z m-2682 -26 c15 -1 15 -2 0 -6 -10 -2 -18 -12 -19
-21 0 -14 -2 -14 -6 -2 -3 8 -11 18 -17 22 -8 5 -7 8 2 8 6 0 13 8 13 18 1 16
2 16 6 0 2 -10 12 -19 21 -19z m1219 -11 c-3 -7 -5 -2 -5 12 0 14 2 19 5 13 2
-7 2 -19 0 -25z m2147 16 c22 -9 10 -24 -20 -24 -25 0 -33 15 -11 23 6 3 13 6
14 6 1 1 8 -2 17 -5z m-1254 -31 c0 -17 5 -16 38 3 l27 16 -26 -23 c-22 -20
-25 -28 -17 -49 5 -13 6 -21 2 -17 -4 3 -20 -3 -37 -15 -21 -15 -32 -18 -35
-10 -5 17 -22 15 -46 -5 -17 -15 -19 -15 -8 -1 8 10 10 27 6 43 -5 22 -1 31
22 50 30 24 74 28 74 8z m348 -18 c-6 -14 -13 -23 -15 -21 -5 5 15 46 22 46 3
0 -1 -11 -7 -25z m-1961 -138 c-2 -23 -3 -1 -3 48 0 50 1 68 3 42 2 -26 2 -67
0 -90z m-63 97 c14 -13 16 -53 14 -307 l-3 -292 -2 289 c-2 193 -7 294 -14
303 -16 19 -342 19 -358 0 -7 -9 -12 -122 -14 -348 l-2 -334 -3 341 c-1 254 1
343 10 352 8 8 64 12 184 12 144 0 175 -3 188 -16z m787 -4 c25 0 29 -4 29
-27 0 -45 -14 -59 -44 -45 -22 10 -26 18 -25 54 0 24 3 37 6 31 2 -7 18 -13
34 -13z m1193 -5 c-6 -14 -25 -20 -48 -16 -5 1 -4 -5 4 -13 11 -14 9 -16 -9
-16 -17 0 -21 6 -21 30 0 28 2 30 40 30 31 0 38 -3 34 -15z m23 -7 c-3 -8 -6
-5 -6 6 -1 11 2 17 5 13 3 -3 4 -12 1 -19z m417 13 c3 -4 -3 -19 -14 -31 -11
-13 -20 -18 -20 -12 0 7 -12 13 -27 13 l-28 2 28 4 c15 2 27 9 27 15 0 6 -9 8
-20 5 -11 -3 -20 -1 -20 4 0 12 67 12 74 0z m-2448 -101 c1 -59 0 -67 -6 -35
-4 22 -8 32 -9 23 -1 -12 -7 -16 -18 -12 -15 5 -15 4 -4 -4 12 -9 12 -13 2
-26 -12 -14 -16 -14 -39 0 -16 10 -21 11 -12 3 30 -27 52 -99 30 -99 -5 0 -10
8 -10 19 0 22 -25 46 -34 32 -3 -5 -3 -16 0 -25 3 -9 1 -22 -5 -30 -6 -7 -10
-20 -8 -27 2 -8 2 -11 0 -7 -3 4 -11 1 -20 -7 -29 -30 -93 -6 -93 35 0 10 -9
20 -20 23 -25 7 -27 -20 -2 -40 9 -8 11 -12 5 -8 -23 11 -14 -15 13 -40 36
-34 87 -33 131 1 18 14 31 29 29 33 -7 10 12 37 20 29 11 -12 -30 -72 -64 -91
-40 -23 -87 -17 -123 16 -13 12 -28 22 -32 22 -16 0 -18 86 -3 116 8 16 11 27
6 24 -4 -3 -10 1 -13 7 -3 10 -7 10 -20 -1 -16 -12 -17 -7 -17 68 l0 82 158
-3 157 -3 1 -75z m2520 18 c-9 -16 -12 -16 -14 -3 -2 8 -8 15 -13 15 -5 0 -4
9 3 19 11 18 13 18 24 3 9 -12 9 -21 0 -34z m-686 38 c0 -2 -7 -7 -16 -10 -8
-3 -12 -2 -9 4 6 10 25 14 25 6z m-2280 -21 c0 -9 -6 -12 -15 -9 -8 4 -15 10
-15 15 0 5 7 9 15 9 8 0 15 -7 15 -15z m1180 -15 c0 -5 -4 -10 -10 -10 -5 0
-10 5 -10 10 0 6 5 10 10 10 6 0 10 -4 10 -10z m180 0 c0 -5 -4 -10 -10 -10
-5 0 -10 5 -10 10 0 6 5 10 10 10 6 0 10 -4 10 -10z m70 0 c0 -5 -4 -10 -10
-10 -5 0 -10 5 -10 10 0 6 5 10 10 10 6 0 10 -4 10 -10z m1050 -54 c0 -3 -4
-8 -10 -11 -5 -3 -10 -1 -10 4 0 6 5 11 10 11 6 0 10 -2 10 -4z m345 -6 c3 -6
-1 -13 -10 -16 -19 -8 -30 0 -20 15 8 14 22 14 30 1z m-1278 -6 c-3 -3 -12 -4
-19 -1 -8 3 -5 6 6 6 11 1 17 -2 13 -5z m958 -3 c3 -5 1 -12 -5 -16 -5 -3 -10
1 -10 9 0 18 6 21 15 7z m-1355 -15 c0 -21 -21 -31 -30 -15 -5 7 -6 17 -4 21
9 14 34 9 34 -6z m975 -24 c0 -18 -20 -15 -23 4 -3 10 1 15 10 12 7 -3 13 -10
13 -16z m308 -21 c15 -14 15 -18 3 -18 -8 0 -13 4 -11 8 5 8 -19 19 -40 19 -9
0 -11 -7 -7 -22 4 -17 2 -20 -11 -15 -11 4 -25 -2 -38 -16 l-20 -22 10 28 c24
63 31 70 64 63 18 -4 40 -15 50 -25z m126 7 c-9 -16 -14 -19 -17 -9 -2 7 2 17
9 22 20 13 21 11 8 -13z m188 -3 c-4 -8 -11 -15 -17 -15 -6 0 -6 7 2 20 14 22
24 19 15 -5z m458 4 c-10 -15 -25 -10 -19 6 4 8 10 12 15 9 5 -3 7 -10 4 -15z
m200 1 c-4 -14 2 -30 19 -51 14 -17 26 -39 26 -50 0 -26 -44 -69 -70 -69 -27
0 -70 43 -70 71 0 11 14 34 30 49 17 15 30 33 30 39 0 6 7 11 15 11 8 0 15 5
15 10 0 6 3 10 6 10 3 0 2 -9 -1 -20z m-1512 -19 c121 -31 244 -83 340 -144
32 -21 68 -37 81 -37 19 0 27 -8 35 -33 7 -19 25 -47 42 -63 53 -49 147 -179
184 -253 36 -71 96 -272 116 -390 14 -80 6 -211 -20 -311 -23 -90 -75 -228
-96 -256 -11 -14 -10 -7 3 26 23 54 77 251 93 337 7 41 9 89 3 140 l-8 78 -9
-52 c-6 -29 -13 -53 -17 -53 -4 0 -3 25 3 56 11 69 -9 194 -55 328 -34 100
-40 112 -68 119 -16 4 -18 0 -17 -29 1 -19 5 -34 8 -34 3 0 6 -6 7 -12 1 -7 4
-26 7 -43 5 -30 5 -30 -4 -3 -14 43 -52 99 -62 92 -5 -3 -9 -1 -9 5 0 5 6 12
13 14 7 3 4 6 -6 6 -10 1 -15 6 -12 11 3 6 4 10 1 10 -2 0 -11 3 -20 6 -15 6
47 -124 100 -208 13 -21 24 -48 23 -60 -1 -21 -1 -20 -9 4 -9 29 -80 151 -85
146 -2 -2 3 -30 11 -63 7 -33 18 -78 23 -99 5 -22 5 -49 1 -60 -9 -20 -9 -20
-9 2 -1 40 -43 192 -53 192 -5 0 -6 5 -2 11 3 6 1 14 -5 18 -6 4 -13 27 -15
52 -6 62 -6 61 -23 -6 -26 -108 -26 -110 0 -162 33 -64 58 -162 50 -192 -4
-17 -3 -22 5 -17 9 5 12 -6 12 -38 0 -30 4 -46 13 -46 9 0 8 -3 -2 -9 -9 -6
-11 -18 -8 -33 4 -13 2 -37 -2 -53 -9 -30 -9 -29 -10 9 -1 49 -10 42 -15 -11
-5 -49 -66 -208 -108 -281 -40 -70 -136 -189 -182 -225 -44 -34 -46 -29 -5 15
183 196 259 364 261 573 1 117 -35 270 -80 343 -15 25 -32 53 -38 64 -34 58
-31 32 4 -32 22 -41 52 -111 68 -155 27 -74 29 -91 28 -215 0 -100 -5 -151
-18 -195 -21 -72 -89 -206 -117 -231 -18 -16 -19 -16 -13 -1 3 9 10 17 15 17
5 0 8 3 7 8 -1 4 12 32 30 62 17 30 31 57 30 60 -1 3 5 16 12 30 34 63 51 258
34 384 -5 37 -9 44 -20 35 -7 -6 -21 -9 -31 -6 -14 4 -14 5 4 6 33 2 34 12 8
86 -38 105 -70 152 -172 254 -85 86 -95 93 -109 79 -13 -12 -14 -20 -5 -37 7
-11 15 -21 20 -21 23 0 140 -134 180 -205 13 -23 14 -29 4 -15 -76 104 -115
150 -161 187 -29 24 -57 43 -62 43 -5 0 -21 -18 -35 -40 l-26 -41 48 -43 48
-43 31 23 c46 36 63 29 20 -8 l-37 -33 32 -43 c19 -26 37 -41 45 -38 8 3 21 9
31 13 11 4 14 3 9 -5 -4 -7 -1 -12 6 -12 7 -1 1 -8 -14 -16 -31 -16 -31 -16
-22 -38 4 -11 15 -14 37 -10 32 5 32 5 7 -8 -41 -21 -37 -40 7 -34 l38 6 -33
-12 c-27 -9 -32 -15 -28 -32 3 -12 6 -26 6 -33 0 -8 13 -10 38 -8 l37 4 -35
-11 c-35 -10 -35 -11 -35 -67 0 -31 -4 -80 -8 -108 -6 -43 -5 -52 6 -47 7 2
25 0 39 -5 20 -8 25 -15 21 -31 -3 -12 -12 -24 -19 -27 -19 -7 -54 15 -55 35
0 14 -2 14 -6 2 -3 -8 -16 -36 -29 -62 -18 -38 -20 -49 -9 -58 7 -6 19 -9 26
-8 7 2 13 -1 14 -7 0 -5 4 -15 8 -22 10 -16 -13 -11 -42 9 -29 21 -46 14 -66
-25 -14 -29 -14 -30 3 -14 24 22 35 21 57 -3 17 -19 17 -21 2 -38 -10 -10 -14
-22 -10 -27 5 -4 2 -5 -4 -1 -8 4 -13 2 -13 -5 0 -8 -6 -6 -18 4 -10 10 -21
14 -24 11 -4 -3 -9 3 -12 14 -7 19 -8 19 -34 -6 -15 -15 -26 -30 -24 -34 1 -5
-1 -7 -6 -6 -11 4 -72 -23 -72 -32 0 -15 14 -19 29 -8 19 15 -15 -28 -41 -53
-10 -9 -18 -26 -18 -37 0 -11 -4 -24 -10 -27 -6 -3 -7 1 -4 9 4 10 1 16 -8 16
-21 0 -29 -11 -18 -26 8 -9 6 -12 -7 -10 -10 0 -17 -5 -15 -11 1 -7 -2 -13 -7
-13 -4 0 -8 -10 -7 -22 1 -14 -4 -22 -11 -20 -17 3 -16 -3 3 -22 12 -12 12
-16 2 -16 -10 0 -13 -18 -13 -70 0 -39 -4 -70 -9 -70 -6 0 4 -15 20 -32 56
-61 63 -78 47 -123 -7 -22 -18 -44 -24 -50 -5 -5 -3 7 5 27 9 21 16 45 16 54
0 24 -44 79 -82 102 -40 25 -108 39 -108 23 0 -6 6 -11 14 -11 8 0 26 -4 40
-10 21 -8 24 -13 17 -31 -7 -19 -15 -22 -69 -23 -33 -1 -66 -6 -73 -13 -9 -9
0 -11 42 -7 44 4 61 1 93 -18 22 -13 42 -29 44 -37 3 -10 -5 -7 -23 7 -36 29
-45 19 -14 -14 l24 -27 -32 17 c-43 22 -96 20 -124 -4 l-24 -19 35 9 c43 12
90 -1 108 -30 12 -20 12 -21 -13 -4 -14 9 -25 12 -25 6 0 -6 5 -14 10 -17 6
-3 10 -10 10 -16 0 -5 -8 -4 -18 2 -11 7 -31 9 -47 5 -24 -6 -26 -8 -11 -19
11 -8 18 -34 22 -82 l5 -70 -31 35 c-36 41 -108 148 -139 205 -19 37 -20 41
-4 65 9 14 30 38 47 53 l31 28 -32 -15 c-34 -17 -73 -65 -73 -90 0 -36 90
-185 179 -296 l20 -25 47 50 46 50 -42 -52 c-23 -29 -46 -53 -50 -53 -22 0
-141 164 -195 268 -31 59 -29 84 11 131 22 27 25 37 20 83 -7 68 -10 80 -20
97 -7 11 -6 12 5 6 11 -7 12 -6 2 6 -6 8 -10 27 -9 41 2 17 -3 29 -12 33 -11
4 -11 9 -3 19 14 17 2 29 -16 14 -11 -8 -12 -7 -7 6 3 9 2 16 -3 16 -6 0 -19
8 -31 18 -11 9 -34 25 -51 34 -30 17 -43 48 -19 48 6 0 8 3 4 7 -4 4 -18 -6
-31 -22 -18 -22 -24 -26 -25 -13 0 9 5 20 10 23 6 3 10 11 10 16 0 6 -5 7 -12
3 -7 -4 -8 -3 -4 5 4 6 11 9 16 6 18 -11 22 37 5 54 -16 15 -17 15 -13 -4 10
-44 -48 -68 -78 -32 -19 22 -19 22 2 5 26 -23 32 -23 30 0 0 10 6 16 17 16 9
-1 17 5 17 12 0 20 -30 65 -40 59 -4 -3 -11 7 -14 21 -7 25 -8 26 -27 9 -10
-10 -22 -15 -26 -12 -3 4 -12 2 -18 -3 -9 -7 -14 -6 -18 3 -4 10 2 14 16 13
21 -2 37 10 37 27 0 5 -4 6 -9 3 -5 -4 -12 0 -14 6 -4 10 -8 9 -16 -2 -6 -8
-11 -10 -11 -5 0 6 -4 4 -9 -4 -7 -11 -11 -9 -21 9 -11 20 -10 22 4 17 11 -4
16 -1 16 9 0 12 7 15 26 11 18 -3 22 -1 15 6 -6 6 -25 12 -43 14 -34 4 -49 18
-41 40 3 7 0 13 -5 13 -6 0 -10 9 -9 20 1 12 7 19 16 17 19 -3 40 75 22 81 -6
2 -9 8 -5 13 3 5 0 9 -7 9 -8 0 -8 4 -2 13 6 6 13 35 16 62 3 28 7 57 9 65 2
9 -10 18 -35 24 -37 10 -38 11 -32 44 10 55 65 159 107 205 41 43 41 35 2 -18
-30 -40 -94 -175 -94 -197 0 -10 5 -18 10 -18 6 0 10 4 10 9 0 5 9 7 19 4 16
-4 23 3 35 32 9 20 13 42 9 49 -3 6 -2 8 2 3 5 -4 18 11 29 32 12 22 44 65 73
95 l52 56 -19 33 c-10 18 -16 37 -12 43 10 15 77 60 68 46 -5 -8 -2 -10 8 -6
9 3 13 10 10 15 -3 5 2 9 10 9 9 0 16 7 16 15 0 8 9 15 20 15 11 0 20 5 20 11
0 5 -3 8 -7 6 -83 -43 -123 -51 -123 -26 0 6 4 8 9 5 5 -4 8 1 7 9 -3 18 -16
32 -16 17 0 -7 -5 -12 -11 -12 -5 0 -7 5 -3 12 4 7 3 8 -4 4 -9 -5 -8 -15 4
-37 8 -17 12 -34 8 -37 -4 -4 -9 -1 -11 6 -3 7 -12 20 -21 28 -15 15 -18 14
-36 -8 -12 -14 -28 -29 -37 -34 -30 -16 -118 -128 -150 -189 -53 -101 -80
-193 -86 -287 -3 -49 -10 -88 -16 -88 -5 0 -4 -7 3 -15 10 -12 10 -15 -1 -15
-8 0 -5 -6 7 -15 11 -8 14 -15 7 -15 -7 0 -13 -5 -13 -11 0 -5 4 -8 9 -5 5 3
8 -5 7 -18 -2 -35 -26 -20 -27 18 -2 30 -2 30 -6 4 -2 -15 5 -62 16 -103 24
-86 24 -85 12 -85 -19 0 -91 209 -91 264 0 14 -6 26 -12 27 -10 0 -10 2 0 6 6
2 12 21 12 41 1 20 7 64 15 97 13 56 13 61 -5 80 -11 12 -20 28 -19 36 0 8 4
4 9 -8 16 -41 33 -24 55 55 4 12 16 32 28 42 21 20 21 20 3 95 -10 41 -21 73
-26 70 -4 -3 -16 -32 -26 -65 -10 -33 -21 -60 -26 -60 -12 0 -10 10 19 78 14
34 23 65 20 69 -4 3 -26 -1 -49 -10 -24 -8 -54 -18 -68 -21 -20 -4 -29 -18
-48 -73 -33 -97 -68 -218 -82 -288 -6 -33 -16 -70 -21 -82 -4 -13 -7 -42 -5
-65 15 -164 20 -196 36 -226 11 -19 20 -28 23 -20 2 7 4 -12 4 -42 0 -43 8
-73 40 -140 21 -47 47 -93 57 -103 10 -9 15 -17 11 -17 -3 0 2 -12 13 -27 28
-42 37 -62 14 -33 -62 76 -149 259 -185 390 -16 59 -20 107 -21 220 0 128 3
156 26 242 59 212 125 336 268 503 88 103 235 190 435 257 l140 47 151 1 c135
0 165 -3 267 -29z m-1291 -66 c-2 -43 -8 -75 -14 -75 -6 0 -7 7 -4 16 3 9 6
42 6 75 0 32 3 59 8 59 4 0 6 -34 4 -75z m2529 47 c36 -23 76 -72 94 -116 30
-71 9 -186 -41 -226 -15 -12 -14 -10 3 13 13 16 19 35 16 44 -4 11 -2 14 5 9
7 -4 9 5 6 31 -11 79 -27 122 -51 138 -14 9 -22 19 -19 22 6 6 -23 32 -35 33
-3 0 -5 -11 -4 -25 2 -14 0 -23 -5 -20 -4 2 -18 -5 -31 -17 -14 -12 -19 -22
-13 -25 6 -2 19 -9 28 -16 14 -10 15 -15 4 -30 -28 -37 -100 -29 -113 13 -8
24 -37 26 -55 5 -11 -13 -9 -20 13 -43 15 -16 27 -31 27 -35 0 -8 -41 13 -51
25 -3 5 -17 9 -32 10 -20 2 -27 8 -27 23 0 12 3 15 8 9 9 -14 42 -14 42 -1 0
5 -7 15 -16 22 -15 11 -15 14 1 41 l17 29 -25 -27 c-27 -29 -49 -109 -41 -149
4 -21 3 -22 -5 -4 -14 29 -12 114 3 158 18 50 40 73 101 108 45 26 56 29 110
23 33 -3 72 -13 86 -22z m-2064 -2 c-1 -21 -10 -18 -13 5 -1 8 2 15 6 15 5 0
8 -9 7 -20z m-27 -3 c0 -14 -49 -42 -58 -33 -2 3 7 11 22 17 14 7 26 16 26 21
0 4 2 8 5 8 3 0 5 -6 5 -13z m1220 -1 c0 -18 -27 -29 -36 -14 -4 5 0 14 7 19
20 13 29 11 29 -5z m148 -23 c-2 -17 -8 -27 -16 -25 -8 1 -11 -2 -7 -9 4 -6
16 -9 26 -6 11 3 16 1 13 -4 -8 -14 -56 -5 -68 14 -8 12 -5 21 8 36 27 30 48
27 44 -6z m-2405 -7 c6 -16 -2 -28 -14 -20 -12 7 -11 34 0 34 5 0 11 -6 14
-14z m-223 -27 l22 -30 -23 -25 -24 -25 -22 27 -22 28 20 28 c11 15 22 28 24
28 2 0 13 -14 25 -31z m-106 -13 c12 -14 31 -40 41 -59 18 -33 18 -35 -1 -60
-10 -15 -21 -26 -24 -26 -10 0 -119 153 -114 161 12 18 75 8 98 -16z m260 12
c-4 -7 -30 -47 -58 -88 l-51 -76 -27 30 -27 29 40 59 c39 56 41 58 85 58 33 0
43 -3 38 -12z m804 -100 c2 -90 0 -108 -12 -108 -8 0 -18 -9 -21 -20 -7 -22
-25 -27 -25 -7 0 7 -9 18 -20 25 -18 11 -20 23 -20 110 0 54 3 102 7 106 4 4
25 6 48 4 l40 -3 3 -107z m137 102 c-9 -14 8 -12 25 3 12 10 12 9 2 -4 -8 -11
-9 -18 0 -27 19 -19 1 -44 -29 -40 -35 4 -45 45 -17 65 21 16 27 17 19 3z m57
-20 c3 -16 1 -30 -4 -30 -4 0 -8 14 -8 30 0 17 2 30 4 30 2 0 6 -13 8 -30z
m1678 0 c0 -5 -2 -10 -4 -10 -3 0 -8 5 -11 10 -3 6 -1 10 4 10 6 0 11 -4 11
-10z m110 -20 c0 -5 -2 -10 -4 -10 -3 0 -8 5 -11 10 -3 6 -1 10 4 10 6 0 11
-4 11 -10z m830 0 c0 -5 -4 -10 -10 -10 -5 0 -10 5 -10 10 0 6 5 10 10 10 6 0
10 -4 10 -10z m-3540 -20 c0 -5 -4 -10 -10 -10 -5 0 -10 5 -10 10 0 6 5 10 10
10 6 0 10 -4 10 -10z m2645 0 c3 -5 -1 -10 -9 -10 -8 0 -18 5 -21 10 -3 6 1
10 9 10 8 0 18 -4 21 -10z m-2488 -52 c-3 -8 -6 -5 -6 6 -1 11 2 17 5 13 3 -3
4 -12 1 -19z m33 7 c0 -8 -2 -15 -4 -15 -2 0 -6 7 -10 15 -3 8 -1 15 4 15 6 0
10 -7 10 -15z m128 3 c6 -1 12 -5 12 -10 0 -5 -17 -8 -37 -7 -21 0 -51 -3 -67
-7 -22 -5 -28 -4 -24 7 3 8 12 13 21 11 8 -1 19 3 22 9 4 6 18 8 34 5 14 -4
32 -7 39 -8z m72 -8 c0 -5 -2 -10 -4 -10 -3 0 -8 5 -11 10 -3 6 -1 10 4 10 6
0 11 -4 11 -10z m2336 -2 c5 4 5 3 1 -2 -13 -16 -37 -15 -37 1 0 12 3 13 13 4
8 -6 18 -7 23 -3z m-3296 -8 c0 -5 -4 -10 -10 -10 -5 0 -10 5 -10 10 0 6 5 10
10 10 6 0 10 -4 10 -10z m1157 -222 c-1 -46 -3 -11 -3 77 0 88 2 125 3 83 2
-42 2 -114 0 -160z m200 210 c-3 -8 -6 -5 -6 6 -1 11 2 17 5 13 3 -3 4 -12 1
-19z m-1157 -5 c0 -9 7 -25 17 -35 15 -17 15 -18 -1 -18 -9 0 -19 -7 -23 -15
-5 -14 -8 -14 -24 1 -23 21 -24 29 -1 59 20 29 32 32 32 8z m160 -48 c0 -1
-10 -15 -23 -32 l-22 -31 -30 41 c-16 22 -24 37 -18 34 7 -4 19 5 29 22 l18
30 23 -31 c13 -18 23 -32 23 -33z m120 7 c0 -4 -11 -15 -24 -24 -22 -16 -24
-15 -40 4 -16 19 -16 20 3 25 16 4 20 11 15 32 l-5 26 25 -28 c14 -15 26 -31
26 -35z m2745 40 c-3 -3 -11 0 -18 7 -9 10 -8 11 6 5 10 -3 15 -9 12 -12z
m-3105 -12 c0 -11 -6 -20 -14 -20 -18 0 -29 16 -21 30 11 18 35 11 35 -10z
m3050 16 c0 -2 -7 -7 -16 -10 -8 -3 -12 -2 -9 4 6 10 25 14 25 6z m-2628 -21
c0 -5 -5 -11 -11 -13 -6 -2 -11 4 -11 13 0 9 5 15 11 13 6 -2 11 -8 11 -13z
m308 -1 c0 -2 -9 -4 -21 -4 -11 0 -18 4 -14 10 5 8 35 3 35 -6z m3153 -1 c60
-5 66 -8 55 -22 -11 -14 -11 -14 2 -4 8 6 31 13 50 15 30 2 39 -2 63 -31 40
-50 33 -91 -20 -119 -60 -32 -128 12 -121 79 l3 36 -34 -19 c-27 -15 -32 -16
-22 -4 17 20 8 20 -29 1 -17 -9 -30 -13 -30 -10 0 2 17 13 38 24 20 11 33 20
27 20 -5 0 -21 -6 -35 -14 -35 -20 -45 -18 -58 10 -23 49 -19 51 111 38z m357
-1 c0 -5 -10 -14 -22 -21 -13 -6 -15 -9 -5 -7 21 7 22 -7 1 -25 -12 -10 -25
-10 -55 -2 -21 6 -39 9 -39 8 0 -2 15 -12 33 -24 17 -11 28 -21 22 -21 -16 1
-127 65 -129 76 0 5 24 12 54 15 89 9 140 10 140 1z m-3592 -19 c-10 -2 -26
-2 -35 0 -10 3 -2 5 17 5 19 0 27 -2 18 -5z m75 0 c-7 -2 -19 -2 -25 0 -7 3
-2 5 12 5 14 0 19 -2 13 -5z m110 0 c-13 -2 -33 -2 -45 0 -13 2 -3 4 22 4 25
0 35 -2 23 -4z m2255 -20 c-10 -2 -26 -2 -35 0 -10 3 -2 5 17 5 19 0 27 -2 18
-5z m-3053 -32 c9 -19 11 -32 5 -36 -13 -8 -50 4 -50 16 0 9 22 49 27 49 1 0
9 -13 18 -29z m115 -42 c-8 -3 -25 -2 -37 4 l-22 10 20 29 21 29 17 -33 c14
-29 14 -34 1 -39z m130 23 c0 -12 2 -12 17 -1 9 8 4 -5 -12 -29 -15 -23 -30
-40 -33 -37 -3 3 2 13 11 23 23 25 21 30 -8 24 -14 -2 -22 -9 -19 -16 3 -6 -1
-3 -9 7 -14 17 -13 21 4 38 10 10 19 25 19 32 1 17 30 -23 30 -41z m120 1 c0
-8 -11 -13 -29 -13 -28 0 -29 1 -18 30 10 27 12 28 29 13 10 -9 18 -22 18 -30z
m419 -15 c15 -15 18 -25 10 -34 -7 -8 -6 -14 3 -17 7 -3 -4 -6 -24 -6 -20 -1
-40 4 -43 9 -4 6 5 10 19 10 32 0 35 20 4 21 -22 1 -22 1 2 9 25 8 25 8 2 9
-13 1 -20 6 -17 11 10 15 22 12 44 -12z m2388 -60 c18 -29 34 -71 37 -93 6
-39 5 -38 -13 13 -11 29 -28 65 -39 80 -29 42 -34 52 -25 52 5 0 23 -24 40
-52z m-3058 20 c-17 -32 -16 -32 -30 -6 -11 20 -10 22 3 10 13 -10 17 -10 22
3 3 8 8 15 11 15 3 0 0 -10 -6 -22z m479 1 c-2 -6 -8 -10 -13 -10 -5 0 -11 4
-13 10 -2 6 4 11 13 11 9 0 15 -5 13 -11z m2959 -4 c0 -8 -4 -12 -9 -9 -5 3
-6 10 -3 15 9 13 12 11 12 -6z m-2490 -17 c-3 -8 -6 -5 -6 6 -1 11 2 17 5 13
3 -3 4 -12 1 -19z m2075 -39 c15 -30 30 -78 33 -109 l5 -55 -18 65 c-9 36 -30
87 -44 113 -15 27 -22 47 -15 44 7 -2 24 -28 39 -58z m-2958 35 c9 -23 4 -24
-16 -2 -14 14 -15 18 -4 18 8 0 17 -7 20 -16z m713 -31 c-3 -10 -5 -2 -5 17 0
19 2 27 5 18 2 -10 2 -26 0 -35z m-917 27 c0 -12 -24 -27 -42 -27 -10 0 -18 8
-18 18 0 13 8 17 30 17 17 -1 30 -4 30 -8z m406 -9 c-9 -8 -18 -12 -22 -9 -9
10 3 25 21 25 14 0 14 -2 1 -16z m2713 -34 c11 -24 23 -65 26 -92 l5 -50 -18
60 c-10 33 -26 75 -35 93 -10 17 -13 32 -8 32 5 0 19 -19 30 -43z m676 3 c0
-8 -10 -16 -22 -18 -22 -3 -32 16 -16 32 12 11 38 2 38 -14z m-2124 -43 c-10
-9 -11 -8 -5 6 3 10 9 15 12 12 3 -3 0 -11 -7 -18z m1619 8 c0 -8 -4 -15 -10
-15 -5 0 -10 7 -10 15 0 8 5 15 10 15 6 0 10 -7 10 -15z m314 -6 c-3 -5 -10
-7 -15 -3 -5 3 -7 10 -3 15 3 5 10 7 15 3 5 -3 7 -10 3 -15z m-2801 4 c-45 -2
-122 -2 -170 0 -48 1 -11 3 82 3 94 0 133 -2 88 -3z m3097 -3 c0 -12 -8 -12
-35 0 -18 8 -17 9 8 9 15 1 27 -3 27 -9z m197 4 c-3 -3 -12 -4 -19 -1 -8 3 -5
6 6 6 11 1 17 -2 13 -5z m98 -15 c0 -7 -8 -15 -17 -17 -18 -3 -25 18 -11 32
10 10 28 1 28 -15z m-3771 -2 c23 -17 14 -53 -15 -62 -22 -7 -49 10 -49 31 0
14 27 44 39 44 4 0 15 -6 25 -13z m568 -34 c21 -19 25 -41 4 -24 -11 10 -16 8
-24 -5 -9 -16 -10 -15 -16 4 -7 21 -1 42 11 42 4 0 15 -7 25 -17z m1462 -6 c8
-13 6 -21 -7 -34 -16 -16 -18 -16 -33 -1 -13 13 -14 20 -4 37 13 24 28 24 44
-2z m-2534 3 c0 -5 -5 -10 -11 -10 -5 0 -7 5 -4 10 3 6 8 10 11 10 2 0 4 -4 4
-10z m158 -47 c2 -24 8 -33 22 -33 10 0 20 7 24 15 3 10 19 15 46 15 l41 0
-16 -30 c-8 -16 -15 -38 -15 -50 0 -16 6 -20 35 -20 19 0 35 -4 35 -9 0 -5 2
-16 5 -23 4 -9 -5 -19 -22 -27 -19 -9 -29 -9 -31 -2 -2 6 -11 11 -20 11 -10 0
-13 -3 -7 -8 6 -4 11 -18 13 -31 1 -17 -2 -22 -13 -17 -10 3 -20 -5 -30 -25
-16 -29 -15 -31 8 -49 14 -11 27 -32 30 -47 3 -16 9 -40 12 -55 6 -22 4 -27
-16 -30 -17 -2 -29 5 -40 23 -10 14 -26 28 -37 31 -16 5 -21 0 -26 -23 -4 -21
-11 -29 -26 -29 -11 0 -20 6 -20 13 0 7 -6 22 -14 32 -12 17 -15 17 -27 4 -8
-8 -19 -23 -25 -34 -13 -23 -25 -27 -43 -16 -11 7 -11 17 -1 58 7 28 21 55 31
61 16 10 19 7 24 -22 6 -27 11 -33 26 -29 10 3 19 13 19 23 0 12 6 17 18 15 9
-2 23 -4 30 -4 6 -1 12 -8 12 -16 0 -8 9 -15 20 -15 24 0 25 9 6 36 -13 17
-12 21 1 36 9 11 16 37 17 64 1 37 -3 49 -24 64 -32 25 -61 25 -94 -1 -33 -26
-33 -37 3 -79 27 -33 31 -34 61 -23 26 10 30 10 20 -1 -12 -16 -54 -26 -69
-17 -5 4 -17 20 -26 36 l-17 30 6 -35 6 -35 -23 25 c-12 14 -31 26 -41 28 -15
3 -17 -1 -12 -22 6 -24 4 -26 -26 -28 l-33 -1 33 -4 c42 -6 41 -23 -2 -23 -46
0 -56 33 -18 57 15 10 36 27 48 39 l21 22 -34 0 c-41 0 -63 16 -56 41 6 22 63
37 74 20 5 -8 8 -8 13 0 4 6 2 11 -3 11 -6 0 -11 11 -11 25 0 14 -7 37 -16 50
l-16 25 46 0 c34 0 46 -4 46 -15 0 -26 29 -16 36 13 10 39 14 43 37 40 17 -2
23 -11 25 -35z m3186 -4 c-10 -17 -32 2 -26 23 5 20 6 20 18 3 7 -10 11 -22 8
-26z m-2455 -5 c20 -13 32 -24 28 -24 -5 0 -2 -7 5 -15 30 -33 38 -45 32 -45
-3 0 -2 -6 3 -12 18 -25 1 -179 -22 -198 -8 -7 -15 -19 -15 -26 0 -8 -5 -14
-11 -14 -6 0 -24 -9 -41 -21 -41 -30 -148 -24 -196 9 -18 13 -29 28 -26 34 4
6 2 8 -4 4 -6 -3 -13 -2 -17 4 -3 5 -2 10 4 10 12 0 8 29 -6 38 -5 4 -12 17
-15 30 -5 17 -2 22 13 22 12 0 19 -7 19 -18 0 -11 9 -27 20 -37 11 -10 18 -21
15 -23 -3 -3 -12 3 -20 14 -13 18 -14 18 -8 -3 5 -21 16 -27 50 -26 7 0 11 -4
10 -9 -1 -6 4 -13 12 -16 8 -2 11 0 8 5 -3 5 3 9 13 9 13 0 16 -4 9 -12 -11
-14 39 -7 58 8 7 5 17 7 23 3 6 -4 9 -2 8 3 -4 15 43 53 56 45 6 -3 8 -3 4 2
-4 4 -2 15 5 23 10 13 9 14 -1 8 -11 -7 -12 -4 -3 13 7 13 8 27 2 38 -5 10
-13 36 -18 58 -5 24 -14 39 -22 37 -7 -1 -10 1 -7 6 2 4 1 14 -4 22 -7 11 -30
15 -82 16 -61 1 -76 -2 -90 -19 -10 -11 -18 -27 -18 -36 0 -14 -2 -14 -10 -1
-5 8 -10 12 -10 8 0 -3 -3 -14 -7 -24 -5 -13 -3 -15 8 -9 12 7 12 6 1 -7 -10
-12 -10 -17 -1 -20 19 -6 0 -48 -21 -48 -23 0 -34 33 -25 75 4 17 7 38 8 48 1
9 9 19 19 23 11 3 15 11 11 22 -3 9 -3 14 1 10 5 -4 18 4 30 17 38 41 165 40
225 -1z m1688 15 c2 -8 -4 -22 -12 -33 -13 -17 -15 -17 -31 -2 -15 16 -15 18
2 37 19 21 38 21 41 -2z m982 -18 c22 -22 45 -58 52 -79 8 -27 17 -39 28 -37
9 1 10 0 4 -2 -7 -3 -13 -17 -13 -33 0 -24 3 -28 17 -23 15 6 16 5 3 -9 -21
-22 -30 -13 -31 30 0 30 -2 33 -9 17 -8 -19 -9 -19 -9 1 -1 12 -10 32 -22 45
-13 15 -19 18 -16 8 4 -13 -1 -16 -24 -14 -16 1 -29 -2 -29 -9 0 -6 -16 -12
-35 -13 -20 -1 -33 2 -30 6 8 13 -32 20 -44 8 -8 -8 -11 -8 -11 0 0 15 -30 10
-41 -8 -21 -34 1 32 30 91 14 27 73 60 107 60 26 0 43 -9 73 -39z m450 23 c11
-4 10 -8 -5 -18 -10 -8 -22 -12 -26 -10 -5 3 -8 1 -8 -5 0 -20 19 -20 80 0 38
12 65 17 69 11 9 -14 113 -19 118 -6 2 6 -11 8 -34 6 -34 -4 -36 -3 -24 12 7
9 25 16 40 16 27 0 57 -42 139 -200 18 -36 40 -69 48 -73 24 -13 17 -37 -10
-35 -16 2 -22 6 -16 13 9 11 -13 49 -23 39 -3 -3 -14 -1 -24 6 -16 10 -16 10
5 5 12 -4 22 -4 22 -1 0 3 -27 47 -60 98 -54 84 -60 90 -61 63 -2 -29 -2 -29
-6 -3 -4 24 -9 27 -56 30 -29 2 -54 3 -56 2 -4 -4 48 -72 80 -105 14 -15 44
-36 67 -48 56 -28 54 -37 -2 -9 -24 11 -51 18 -59 15 -8 -3 -18 -24 -22 -48
-7 -39 -5 -44 29 -77 l35 -36 38 17 c21 9 29 11 19 4 -11 -6 -28 -20 -38 -29
-19 -19 -38 -24 -38 -10 0 5 -7 9 -15 9 -8 0 -15 -4 -15 -9 0 -4 -6 -8 -14 -8
-16 0 -46 -37 -46 -57 0 -7 5 -13 11 -13 6 0 8 7 5 16 -3 8 -2 12 4 9 6 -3 21
6 34 22 13 15 27 25 31 21 4 -4 -9 -24 -29 -45 -20 -21 -36 -42 -36 -46 0 -5
-7 -15 -15 -24 -9 -8 -21 -35 -27 -59 l-12 -44 -51 1 c-49 0 -113 17 -72 18
22 1 21 7 -12 61 -18 30 -39 49 -62 58 l-34 13 34 -6 c29 -4 32 -3 25 13 -4 9
-8 30 -9 46 -1 17 -7 32 -14 34 -8 3 -7 8 5 16 9 7 15 21 13 31 -4 17 -7 16
-34 -8 -16 -15 -25 -27 -19 -27 6 0 11 -7 11 -15 0 -11 -3 -12 -14 -3 -10 8
-17 7 -28 -8 -29 -38 -28 -61 4 -116 17 -29 23 -43 14 -30 -10 13 -29 38 -43
55 -14 18 -31 46 -38 62 -11 26 -10 28 1 13 20 -26 33 -22 47 12 11 27 11 32
-6 45 -18 14 -18 14 1 9 24 -5 71 18 68 34 -2 6 3 9 11 6 7 -3 19 2 26 11 9
11 9 15 1 15 -8 0 -10 8 -6 23 5 18 3 17 -10 -5 -19 -34 -20 -34 -21 -3 -1 14
3 25 8 25 6 0 7 11 4 24 -7 28 2 58 15 51 4 -3 17 3 29 15 11 11 23 20 28 19
13 0 13 28 0 33 -7 2 -32 1 -56 -4 -35 -8 -51 -20 -94 -71 -78 -94 -95 -98
-33 -8 30 44 55 83 55 86 0 3 11 23 25 44 28 46 68 56 134 35z m419 -2 c2 -7
-3 -12 -12 -12 -9 0 -16 7 -16 16 0 17 22 14 28 -4z m-4068 -16 c0 -3 -4 -8
-10 -11 -5 -3 -10 -1 -10 4 0 6 5 11 10 11 6 0 10 -2 10 -4z m1239 -48 c-5
-10 -11 -18 -12 -18 -2 0 -3 8 -3 18 0 10 6 19 13 19 8 0 9 -6 2 -19z m-1136
-12 c8 -21 -22 -44 -33 -26 -10 17 -2 40 15 40 7 0 15 -6 18 -14z m2183 -3
c18 -25 17 -28 -11 -41 -20 -9 -26 -8 -34 6 -7 12 -5 22 6 34 20 22 23 22 39
1z m-1361 -60 c-13 -27 -28 -82 -34 -123 -7 -41 -14 -77 -18 -80 -6 -5 1 46
19 143 9 47 38 107 52 107 2 0 -7 -21 -19 -47z m-454 8 c33 -34 39 -85 13
-117 -15 -18 -15 -18 -5 3 17 34 13 80 -6 88 -27 10 -105 12 -126 2 -16 -8
-17 -6 -7 13 25 46 90 52 131 11z m859 8 c0 -5 -7 -9 -15 -9 -15 0 -20 12 -9
23 8 8 24 -1 24 -14z m-620 2 c0 -6 -4 -13 -10 -16 -5 -3 -10 1 -10 9 0 9 5
16 10 16 6 0 10 -4 10 -9z m490 -11 c-6 -11 -13 -20 -16 -20 -2 0 0 9 6 20 6
11 13 20 16 20 2 0 0 -9 -6 -20z m1754 3 c-15 -16 -15 -17 2 -24 14 -6 11 -8
-13 -8 -39 -1 -41 4 -10 30 28 23 44 25 21 2z m-3151 -35 c15 -23 -6 -68 -33
-68 -27 0 -44 43 -29 71 12 24 47 22 62 -3z m634 -23 c2 -11 0 -14 -3 -7 -7
15 -44 16 -44 0 0 -6 -3 -9 -6 -5 -4 3 -4 13 0 22 9 23 50 15 53 -10z m530
-12 c-2 -31 -6 -37 -21 -35 -15 3 -17 -1 -12 -22 3 -14 8 -38 11 -53 4 -23 4
-24 -4 -8 -7 16 -10 11 -16 -30 -5 -27 -10 -44 -13 -37 -2 7 1 33 7 57 7 29 8
52 1 69 -7 20 -5 29 15 48 14 13 25 29 25 36 0 6 2 12 5 12 3 0 4 -17 2 -37z
m1472 -53 c0 -8 -9 8 -19 35 -11 28 -20 52 -19 55 2 11 38 -76 38 -90z m523
51 c-8 -4 -25 -5 -40 -2 -26 5 -26 6 8 11 39 7 51 3 32 -9z m-2542 -1 c0 -5
-5 -10 -11 -10 -5 0 -7 5 -4 10 3 6 8 10 11 10 2 0 4 -4 4 -10z m1925 -10
c-11 -5 -27 -9 -35 -9 -9 0 -8 4 5 9 11 5 27 9 35 9 9 0 8 -4 -5 -9z m-1078
-15 c7 -20 0 -27 -20 -19 -9 3 -13 12 -10 20 7 19 22 18 30 -1z m-1297 -56
c-13 -24 -73 -28 -64 -4 4 8 14 16 23 16 14 1 14 2 -1 6 -18 4 -24 24 -12 36
4 4 20 -3 35 -14 24 -17 27 -24 19 -40z m3281 34 c-12 -20 -14 -14 -5 12 4 9
9 14 11 11 3 -2 0 -13 -6 -23z m896 -20 c-3 -10 -5 -4 -5 12 0 17 2 24 5 18 2
-7 2 -21 0 -30z m-210 5 c-3 -8 -6 -5 -6 6 -1 11 2 17 5 13 3 -3 4 -12 1 -19z
m-554 -63 c16 -24 13 -22 -16 9 -40 41 -44 52 -24 59 6 2 14 -5 16 -17 1 -11
12 -34 24 -51z m-3337 19 c-3 -8 1 -17 9 -20 17 -7 21 -69 5 -79 -5 -3 -10
-18 -11 -33 0 -24 -1 -25 -8 -7 -8 19 -9 18 -13 -5 -3 -14 -6 -2 -8 30 -2 44
-4 50 -10 30 -7 -21 -8 -19 -9 16 -1 29 4 44 15 48 8 3 12 10 9 16 -8 14 4 32
16 24 6 -3 8 -12 5 -20z m81 -30 c-9 -9 -28 6 -21 18 4 6 10 6 17 -1 6 -6 8
-13 4 -17z m2251 19 c-10 -2 -26 -2 -35 0 -10 3 -2 5 17 5 19 0 27 -2 18 -5z
m349 -35 c-3 -7 -5 -2 -5 12 0 14 2 19 5 13 2 -7 2 -19 0 -25z m1420 10 c-3
-8 -6 -5 -6 6 -1 11 2 17 5 13 3 -3 4 -12 1 -19z m-1774 5 c-7 -2 -19 -2 -25
0 -7 3 -2 5 12 5 14 0 19 -2 13 -5z m-1576 -50 c-3 -10 -5 -4 -5 12 0 17 2 24
5 18 2 -7 2 -21 0 -30z m-122 -3 c-3 -4 -1 -10 4 -12 5 -2 4 -10 -3 -20 -15
-20 -60 -28 -62 -10 -1 6 -2 17 -3 23 0 5 -5 7 -11 4 -6 -3 -7 1 -3 10 3 9 15
20 27 25 23 8 60 -6 51 -20z m492 -92 c-2 -24 -4 -5 -4 42 0 47 2 66 4 43 2
-24 2 -62 0 -85z m1778 112 c3 -5 1 -10 -4 -10 -6 0 -11 5 -11 10 0 6 2 10 4
10 3 0 8 -4 11 -10z m-2765 -28 c0 -4 -9 -8 -19 -8 -15 0 -17 3 -9 13 10 12
28 9 28 -5z m1044 3 c3 -8 -2 -22 -11 -31 -15 -15 -17 -14 -25 1 -6 9 -7 23
-4 31 7 18 32 18 40 -1z m1189 -27 c0 -21 -3 -38 -6 -38 -4 0 -18 0 -32 0 -23
0 -25 4 -25 41 0 39 1 40 32 37 29 -3 31 -6 31 -40z m719 7 c0 -5 -5 -11 -11
-13 -6 -2 -11 4 -11 13 0 9 5 15 11 13 6 -2 11 -8 11 -13z m228 5 c0 -5 -2
-10 -4 -10 -3 0 -8 5 -11 10 -3 6 -1 10 4 10 6 0 11 -4 11 -10z m607 -25 c-4
-8 -11 -15 -17 -15 -14 0 -13 27 3 33 16 6 21 1 14 -18z m180 -7 c-3 -7 -5 -2
-5 12 0 14 2 19 5 13 2 -7 2 -19 0 -25z m-3967 12 c0 -5 -4 -10 -10 -10 -5 0
-10 5 -10 10 0 6 5 10 10 10 6 0 10 -4 10 -10z m2565 0 c4 -6 -17 -9 -57 -8
l-63 1 50 7 c28 4 53 8 57 8 4 1 10 -2 13 -8z m535 -26 c0 -8 -4 -14 -9 -14
-11 0 -22 26 -14 34 9 9 23 -3 23 -20z m-290 1 c0 -8 -7 -15 -15 -15 -8 0 -15
7 -15 15 0 8 7 15 15 15 8 0 15 -7 15 -15z m-3406 -11 c20 -19 20 -19 1 -38
-20 -20 -45 -10 -45 18 0 38 18 46 44 20z m3517 0 c11 -14 10 -15 -11 -12 -13
1 -25 9 -28 16 -5 17 23 15 39 -4z m830 -22 c-6 -2 -9 -7 -6 -12 3 -4 -2 -11
-11 -14 -13 -5 -12 -1 3 24 10 18 20 25 22 18 2 -6 -1 -14 -8 -16z m-3763 11
c-10 -2 -26 -2 -35 0 -10 3 -2 5 17 5 19 0 27 -2 18 -5z m2247 -3 c15 -7 10
-9 -22 -9 -24 -1 -43 4 -43 9 0 12 37 12 65 0z m-25 -46 c0 -2 -9 -4 -20 -4
-11 0 -20 4 -20 9 0 5 9 7 20 4 11 -3 20 -7 20 -9z m-2585 -16 c52 -45 42
-144 -18 -174 -76 -40 -164 36 -143 122 18 68 108 98 161 52z m873 10 c7 -7
12 -16 12 -21 0 -5 -7 -1 -16 7 -13 14 -46 16 -222 15 -114 -1 -274 -4 -357
-8 l-150 -6 -5 -235 -6 -235 -2 228 c-1 143 2 236 8 248 10 18 25 19 368 19
265 0 361 -3 370 -12z m557 -11 c-7 -17 -37 -17 -43 1 -2 6 7 12 20 14 29 5
30 4 23 -15z m2115 -7 c0 -6 -76 -9 -212 -8 l-213 2 205 6 c113 3 208 7 213 8
4 1 7 -2 7 -8z m125 0 c3 -5 2 -10 -4 -10 -5 0 -13 5 -16 10 -3 6 -2 10 4 10
5 0 13 -4 16 -10z m110 -22 c17 -7 16 -8 -5 -3 -14 2 -37 5 -52 5 -16 0 -28 5
-28 11 0 11 48 4 85 -13z m339 0 c8 -14 7 -22 -6 -35 -15 -15 -21 -15 -43 -3
-29 16 -32 35 -7 49 23 14 42 10 56 -11z m-3479 -11 c4 -13 2 -68 -3 -123 l-9
-99 -2 80 c-3 92 -8 110 -36 110 -14 0 -21 -8 -23 -27 -3 -24 -8 -28 -33 -28
-17 0 -32 -6 -35 -15 -5 -12 -27 -15 -98 -17 -89 -2 -90 -2 -18 -5 70 -4 95
-18 50 -28 -13 -2 -72 -6 -131 -9 -60 -2 -111 -6 -114 -9 -2 -3 -8 -45 -12
-94 -7 -79 -8 -69 -10 93 0 99 2 184 6 187 3 4 109 7 234 7 l229 0 5 -23z
m2789 -14 c18 -13 18 -15 3 -9 -11 3 -29 8 -40 10 -12 2 -16 1 -9 -1 6 -3 12
-8 12 -13 0 -5 -6 -7 -14 -4 -11 4 -13 0 -9 -15 3 -12 9 -21 12 -21 4 0 8 -7
8 -15 0 -10 -6 -14 -15 -10 -12 4 -13 3 -2 -10 10 -12 16 -13 26 -4 15 12 16
9 17 -39 0 -16 4 -21 15 -17 13 5 13 3 2 -11 -11 -12 -11 -17 -1 -23 9 -6 7
-10 -9 -14 -14 -3 -20 -12 -19 -24 4 -22 -17 -63 -32 -63 -6 0 -8 4 -4 9 3 5
-1 11 -8 13 -11 2 -10 7 4 22 17 18 18 17 12 -5 -4 -15 -3 -20 5 -15 7 4 11
24 11 44 -1 20 -3 30 -6 21 -2 -9 -15 -21 -28 -27 -16 -7 -25 -20 -26 -34 0
-13 -3 -17 -6 -9 -3 7 -14 22 -24 32 -15 15 -19 16 -19 4 0 -8 5 -15 11 -15 6
0 8 -7 5 -17 -8 -21 13 -34 35 -22 12 6 19 4 22 -5 3 -8 3 -17 0 -20 -11 -11
-61 -6 -66 7 -3 7 -6 5 -6 -5 -1 -10 -5 -18 -11 -18 -5 0 -10 -8 -10 -17 0 -9
-3 -14 -6 -10 -4 3 -2 19 4 36 8 23 7 31 -4 35 -8 3 -14 15 -14 26 0 11 -3 19
-7 19 -5 -1 -18 -1 -30 0 -25 1 -32 21 -8 21 9 0 15 6 14 13 -3 23 13 77 22
71 5 -3 9 2 9 10 0 9 5 16 11 16 6 0 9 6 6 13 -2 6 -9 11 -15 10 -5 -1 -8 7
-4 19 l5 22 8 -22 c7 -18 14 -21 50 -17 23 2 47 9 53 16 8 9 8 10 -1 5 -16 -9
-44 4 -36 17 3 6 1 7 -6 3 -6 -4 -8 -12 -5 -18 4 -6 1 -8 -7 -6 -8 3 -13 11
-11 18 1 7 -3 18 -9 26 -9 11 -9 14 0 14 7 0 9 5 5 12 -5 7 -2 9 8 6 8 -4 21
-2 29 3 18 12 77 2 103 -18z m-2587 -30 c-3 -10 -5 -4 -5 12 0 17 2 24 5 18 2
-7 2 -21 0 -30z m-59 20 c-21 -2 -57 -2 -80 0 -24 2 -7 4 37 4 44 0 63 -2 43
-4z m512 -24 c0 -6 -4 -7 -10 -4 -5 3 -10 11 -10 16 0 6 5 7 10 4 6 -3 10 -11
10 -16z m-513 4 c-20 -2 -52 -2 -70 0 -17 2 0 4 38 4 39 0 53 -2 32 -4z m2743
-6 c12 4 12 3 1 -5 -7 -5 -18 -16 -23 -23 -8 -11 -9 -11 -5 1 2 8 -3 21 -12
28 -14 11 -13 12 4 4 11 -5 27 -7 35 -5z m-296 -13 c3 -8 2 -12 -4 -9 -6 3
-10 10 -10 16 0 14 7 11 14 -7z m53 9 c-4 -3 -2 -12 4 -20 8 -9 8 -13 1 -13
-6 0 -14 5 -17 10 -6 10 2 30 12 30 4 0 3 -3 0 -7z m179 -41 c-11 -10 -15 4
-8 28 l7 25 3 -23 c2 -13 1 -26 -2 -30z m-2749 32 c-3 -3 -12 -4 -19 -1 -8 3
-5 6 6 6 11 1 17 -2 13 -5z m1817 -37 c13 -10 16 -20 12 -35 -7 -21 -9 -21
-37 -7 -25 13 -28 19 -19 35 13 24 20 25 44 7z m-1755 -34 c14 -51 14 -60 -5
-67 -48 -18 -94 -2 -94 33 0 40 26 71 60 71 25 0 31 -5 39 -37z m3481 -5 c0
-19 -2 -20 -10 -8 -13 19 -13 30 0 30 6 0 10 -10 10 -22z m-4360 -18 c0 -5 -4
-10 -10 -10 -5 0 -10 5 -10 10 0 6 5 10 10 10 6 0 10 -4 10 -10z m433 -27
c-23 -2 -64 -2 -90 0 -26 2 -7 3 42 3 50 0 71 -1 48 -3z m3605 -28 c20 -13 48
-33 62 -44 35 -29 43 -26 62 19 17 41 44 53 55 24 3 -9 -2 -32 -13 -51 -10
-19 -20 -30 -22 -23 -2 6 1 17 7 23 14 14 14 47 1 47 -13 0 -32 -48 -24 -61 3
-5 -1 -9 -8 -9 -8 -1 -6 -6 6 -15 30 -23 7 -26 -179 -23 l-169 3 -23 40 c-26
46 -26 78 0 83 13 3 23 -8 35 -37 9 -22 22 -41 28 -41 5 0 37 20 70 44 32 25
62 45 67 45 4 1 24 -10 45 -24z m-3577 -39 c5 -6 9 -21 9 -34 0 -14 4 -21 11
-16 6 3 15 0 20 -7 6 -10 9 -7 10 11 1 20 3 18 9 -10 l7 -35 2 32 c1 36 17 53
24 26 3 -11 5 -6 6 12 l2 30 14 -30 13 -30 3 30 2 30 7 -35 7 -35 2 33 c2 47
25 36 31 -14 l6 -39 9 55 9 55 4 -47 c4 -57 19 -63 25 -10 2 22 4 11 5 -30 l2
-68 -200 0 c-193 0 -200 1 -200 20 0 11 4 20 9 20 4 0 13 15 19 33 l10 32 2
-35 c1 -29 3 -32 10 -15 l9 20 1 -20 c2 -17 3 -17 7 -2 2 9 9 17 14 17 5 0 9
10 9 23 0 16 3 18 9 8 10 -16 22 2 36 54 8 29 9 30 13 5 2 -14 8 -29 13 -34z
m1159 39 c0 -2 -10 -9 -22 -15 -22 -11 -22 -10 -4 4 21 17 26 19 26 11z m49
-29 c8 -10 9 -16 1 -21 -5 -3 -10 -1 -10 6 0 7 -9 5 -22 -7 -23 -19 -23 -19
-5 2 9 11 14 24 10 27 -3 4 -2 7 4 7 6 0 16 -6 22 -14z m-1517 -213 l3 -218
85 -6 85 -5 -87 -2 c-83 -2 -88 -1 -93 21 -8 36 -11 427 -3 427 4 0 9 -98 10
-217z m1323 180 c7 -17 8 -16 16 2 9 18 9 18 5 -3 -3 -18 11 -41 60 -98 36
-40 63 -78 60 -83 -4 -5 -32 19 -64 52 -83 88 -113 127 -106 138 8 14 21 11
29 -8z m1018 -5 c3 -8 -4 -13 -18 -13 -18 0 -21 3 -13 13 6 6 14 12 18 12 4 0
10 -6 13 -12z m856 -15 c6 -13 4 -22 -7 -33 -14 -13 -15 -12 -9 5 5 13 0 10
-16 -9 -16 -19 -29 -27 -38 -22 -8 4 -6 1 5 -8 10 -8 16 -21 13 -29 -3 -8 -2
-18 3 -23 14 -15 23 -74 11 -74 -6 0 -7 -7 -4 -17 4 -10 2 -14 -4 -10 -6 4
-16 0 -23 -8 -7 -8 -17 -12 -22 -9 -5 3 -16 -2 -24 -12 -14 -17 -15 -17 -10
-1 3 9 1 17 -4 17 -6 0 -10 -5 -10 -12 0 -6 -6 -4 -13 7 -8 10 -19 15 -24 12
-6 -4 -14 4 -17 18 -4 14 -11 25 -17 25 -5 0 -9 18 -7 40 1 22 6 40 11 40 5 0
7 -9 4 -19 -3 -13 -1 -18 9 -14 19 7 45 50 39 66 -9 23 38 41 75 29 29 -11 31
-10 37 18 3 16 9 27 14 24 5 -3 9 0 9 5 0 16 8 13 19 -6z m-2461 -30 c-21 -2
-55 -2 -75 0 -21 2 -4 4 37 4 41 0 58 -2 38 -4z m1752 -18 c-7 -9 -15 -13 -17
-11 -6 6 20 36 26 30 2 -2 -2 -10 -9 -19z m-2580 -5 c8 -16 8 -24 -3 -35 -8
-8 -17 -11 -21 -8 -3 4 -7 -11 -7 -33 -1 -35 -2 -34 -10 16 -4 30 -6 61 -4 68
7 19 33 14 45 -8z m27 -2 c-3 -8 -6 -5 -6 6 -1 11 2 17 5 13 3 -3 4 -12 1 -19z
m3371 5 c-10 -2 -28 -2 -40 0 -13 2 -5 4 17 4 22 1 32 -1 23 -4z m-1873 -21
c-3 -3 -11 0 -18 7 -9 10 -8 11 6 5 10 -3 15 -9 12 -12z m1585 -29 c-1 -24 -2
-26 -11 -10 -5 9 -7 22 -4 27 10 17 15 11 15 -17z m-1390 -116 c80 -39 75 -36
67 -44 -4 -3 -19 0 -34 7 -16 7 -33 14 -40 16 -17 3 -76 46 -91 67 -7 9 -19
14 -25 11 -7 -4 -9 -4 -5 0 3 4 -10 23 -30 42 -21 20 -8 12 28 -16 36 -29 94
-66 130 -83z m1546 96 c-10 -10 -19 5 -10 18 6 11 8 11 12 0 2 -7 1 -15 -2
-18z m409 9 c-83 -58 -310 -202 -321 -202 -5 0 16 15 46 34 30 19 102 66 160
105 58 38 110 70 115 70 6 1 6 -2 0 -7z m-3140 -13 c-110 -10 -288 -9 -306 2
-8 5 63 8 186 7 161 -1 184 -3 120 -9z m128 4 c-7 -2 -19 -2 -25 0 -7 3 -2 5
12 5 14 0 19 -2 13 -5z m3332 -8 c17 -9 45 -30 61 -48 25 -27 25 -29 3 -9
l-26 22 -12 -27 c-7 -16 -11 -28 -9 -29 1 -1 -12 -14 -30 -29 -36 -30 -121
-46 -144 -27 -9 7 -18 7 -31 -2 -21 -16 -23 -30 -2 -22 9 3 19 -3 26 -15 15
-28 6 -34 -31 -18 -22 10 -30 19 -26 32 2 9 0 17 -5 17 -5 0 -9 12 -9 26 0 33
-20 21 -21 -14 -1 -23 -2 -23 -6 -5 -5 25 26 90 53 114 56 49 146 63 209 34z
m-2975 -30 c0 -8 -7 -15 -15 -15 -16 0 -20 12 -8 23 11 12 23 8 23 -8z m-1073
-52 c-3 -10 -5 -2 -5 17 0 19 2 27 5 18 2 -10 2 -26 0 -35z m701 40 c-81 -2
-216 -2 -300 0 -84 1 -18 3 147 3 165 0 234 -2 153 -3z m2970 -32 c-53 -34
-96 -57 -87 -47 12 13 114 75 123 76 6 0 -11 -13 -36 -29z m-2180 7 c-6 -18
-28 -21 -28 -4 0 9 7 16 16 16 9 0 14 -5 12 -12z m218 -24 c31 -20 72 -43 92
-51 21 -9 31 -18 24 -20 -13 -5 -119 52 -162 87 -40 31 -15 23 46 -16z m-1331
6 c-3 -5 -30 -10 -58 -10 -37 0 -48 3 -37 10 20 13 103 13 95 0z m2685 -26 c0
-8 -5 -12 -10 -9 -6 4 -8 11 -5 16 9 14 15 11 15 -7z m-1430 -4 c0 -5 -5 -10
-11 -10 -5 0 -7 5 -4 10 3 6 8 10 11 10 2 0 4 -4 4 -10z m2090 -5 c0 -8 -7
-15 -15 -15 -8 0 -15 7 -15 15 0 8 7 15 15 15 8 0 15 -7 15 -15z m-155 -13
c-18 -15 -85 -54 -85 -48 0 3 19 16 43 30 43 26 59 33 42 18z m530 -13 c-4 -5
-15 -14 -25 -19 -16 -8 -18 -8 -14 5 4 8 13 15 21 15 8 0 11 5 7 12 -4 7 -3 8
5 4 6 -4 9 -12 6 -17z m-3155 1 c-8 -5 -19 -10 -25 -10 -5 0 -3 5 5 10 8 5 20
10 25 10 6 0 3 -5 -5 -10z m163 3 c2 6 7 9 11 6 4 -3 0 -11 -7 -17 -10 -9 -18
-8 -33 4 -18 14 -18 15 3 5 16 -8 23 -8 26 2z m656 -98 c34 -37 44 -62 25 -62
-7 0 -11 3 -9 6 2 4 -5 18 -16 31 -20 27 -25 16 -10 -23 7 -18 5 -30 -5 -46
-30 -42 -73 -16 -90 54 -4 17 -11 35 -16 42 -10 13 -3 33 12 33 5 0 10 -10 12
-22 2 -15 9 -21 18 -19 8 2 23 4 33 5 24 1 22 6 -19 62 l-36 49 37 -40 c20
-22 48 -53 64 -70z m-718 85 c11 -6 19 -21 19 -35 0 -31 -12 -32 -25 -3 -14
32 -45 35 -66 7 -15 -20 -20 -22 -31 -11 -11 11 -9 17 11 33 26 21 62 25 92 9z
m-717 -18 c5 -2 -5 -11 -23 -18 -26 -11 -35 -11 -58 1 l-27 14 25 10 c22 8 61
5 83 -7z m530 9 c9 -14 -4 -41 -19 -41 -18 0 -26 25 -12 39 13 13 24 14 31 2z
m2168 -46 c-15 -17 -38 -40 -52 -50 -18 -13 -15 -7 9 18 44 46 37 69 -9 31
-35 -27 -35 -27 4 13 32 35 41 40 57 30 16 -10 16 -13 -9 -42z m268 45 c0 -5
-5 -10 -11 -10 -5 0 -7 5 -4 10 3 6 8 10 11 10 2 0 4 -4 4 -10z m-2866 -8 c2
-4 1 -14 -4 -22 -7 -11 -12 -12 -21 -3 -6 6 -8 16 -5 22 8 13 23 14 30 3z
m2394 -19 c-5 -26 -38 -29 -38 -4 0 15 6 21 21 21 14 0 19 -5 17 -17z m-2050
-12 c3 -8 -39 -11 -127 -11 -73 0 -131 4 -131 9 0 15 13 16 137 14 73 -1 119
-6 121 -12z m3382 -36 c-6 -19 -16 -38 -22 -41 -6 -4 -6 1 1 14 6 11 8 28 5
36 -3 9 -1 16 5 16 6 0 10 3 10 8 -3 16 3 26 8 15 2 -7 -1 -29 -7 -48z m-523
9 c8 -21 -13 -42 -28 -27 -13 13 -5 43 11 43 6 0 13 -7 17 -16z m93 -9 c0 -7
-7 -16 -15 -19 -20 -7 -33 23 -14 34 16 10 29 4 29 -15z m-3655 -15 c0 -16 -6
-26 -18 -28 -19 -4 -32 20 -23 44 9 25 41 13 41 -16z m1173 18 c16 -16 15 -90
-1 -112 -7 -10 -22 -17 -33 -14 -24 4 -51 57 -35 68 7 3 9 14 5 23 -15 39 33
66 64 35z m1900 -5 c-5 -26 -38 -29 -38 -4 0 15 6 21 21 21 14 0 19 -5 17 -17z
m117 7 c3 -5 1 -10 -4 -10 -6 0 -11 5 -11 10 0 6 2 10 4 10 3 0 8 -4 11 -10z
m-1770 -30 c-20 -22 -35 -26 -35 -10 0 6 10 15 23 20 32 13 32 12 12 -10z
m-1136 -18 c6 -10 10 -120 11 -248 1 -277 2 -257 -10 -249 -6 4 -8 16 -4 27 5
15 3 19 -7 13 -11 -6 -12 -5 -1 6 9 9 12 69 12 223 0 181 -2 212 -17 228 -9
10 -11 18 -5 18 6 0 16 -8 21 -18z m621 -11 c5 -11 9 -64 8 -118 l-2 -98 -5
100 c-3 55 -10 106 -14 113 -11 17 -467 18 -485 0 -7 -7 -12 -8 -12 -2 0 6 3
14 7 17 3 4 116 7 249 7 230 0 244 -1 254 -19z m138 2 c2 -7 -4 -13 -13 -13
-11 0 -15 -5 -11 -15 3 -9 0 -15 -10 -15 -9 0 -12 5 -8 12 4 7 3 8 -4 4 -7 -4
-12 -21 -12 -38 0 -44 -10 -29 -12 17 -1 27 4 42 18 52 21 16 45 14 52 -4z
m3002 -17 c0 -2 -8 -10 -17 -17 -16 -13 -17 -12 -4 4 13 16 21 21 21 13z
m-3653 -193 c-2 -37 -3 -9 -3 62 0 72 1 102 3 68 2 -34 2 -93 0 -130z m482
160 c0 -16 -3 -22 -6 -15 -2 6 -21 12 -41 11 -32 0 -34 -1 -15 -9 17 -7 22
-16 19 -32 -3 -13 -5 -26 -5 -30 -1 -5 -10 -8 -22 -8 -11 0 -17 -5 -14 -10 4
-6 11 -7 17 -4 7 4 8 2 4 -4 -5 -9 -13 -9 -26 -2 -16 8 -18 8 -14 -5 4 -11 0
-15 -16 -15 -30 0 -60 18 -60 35 0 8 -4 15 -9 15 -6 0 -6 -12 -1 -30 5 -18 5
-30 -1 -30 -8 0 -12 12 -11 30 0 3 -20 3 -44 1 -33 -2 -44 -7 -44 -20 0 -9 -4
-22 -8 -28 -5 -7 -8 4 -7 26 0 22 2 38 5 36 3 -2 14 3 25 11 10 8 14 14 8 14
-7 0 -15 -5 -18 -10 -4 -6 -11 -8 -16 -5 -5 4 -12 -1 -15 -9 -8 -22 -34 -20
-34 2 -1 13 -4 11 -15 -8 -13 -22 -20 -20 -16 4 1 5 -9 1 -24 -8 -14 -9 -25
-12 -25 -6 0 6 -4 8 -10 5 -6 -4 -10 18 -10 59 l0 66 225 0 225 0 -1 -27z
m2555 11 c9 -9 16 -32 16 -55 l0 -39 158 -2 c134 -2 120 -3 -93 -8 -250 -5
-250 -5 -253 -27 -2 -16 2 -23 13 -23 9 0 13 5 10 10 -4 7 68 10 209 10 195 0
247 -6 216 -25 -5 -3 -10 -17 -10 -29 0 -20 -6 -24 -52 -30 -29 -3 -75 -6
-102 -6 -106 0 -23 -15 109 -19 30 -1 36 -4 25 -11 -8 -5 -26 -10 -40 -10 -19
0 -21 -3 -11 -9 11 -7 7 -11 -15 -14 -16 -3 -5 -4 24 -3 28 2 52 -1 52 -5 0
-8 -15 -13 -32 -10 -5 0 -8 -3 -8 -9 0 -5 -37 -11 -82 -13 l-83 -3 88 -2 c132
-3 104 -18 -35 -19 -68 -1 -107 2 -88 6 28 5 31 8 17 14 -11 4 -23 5 -28 1 -5
-3 -12 2 -15 10 -9 25 -24 19 -24 -9 0 -22 -4 -25 -35 -25 -29 0 -35 4 -35 21
0 13 4 18 13 13 7 -5 6 0 -3 11 -14 17 -15 16 -21 -16 -5 -33 -6 -32 -14 19
-8 57 -18 70 -40 52 -11 -9 -15 -43 -18 -133 -2 -89 -3 -69 -5 73 -1 145 1
200 11 210 10 12 9 12 -4 2 -9 -6 -18 -9 -21 -6 -9 9 -19 -46 -12 -68 4 -13 2
-18 -4 -14 -5 3 -16 -2 -23 -11 -10 -12 -10 -14 -1 -9 14 9 16 -3 2 -24 -6
-10 -10 -11 -10 -2 0 6 -7 12 -15 12 -8 0 -15 -4 -15 -10 0 -5 -17 -11 -37
-12 -35 -1 -34 -2 12 -8 l50 -7 -52 -1 c-29 -1 -53 -5 -53 -8 0 -3 12 -22 27
-42 l27 -37 -29 26 c-36 32 -81 44 -101 28 -8 -6 -14 -8 -14 -5 0 4 -16 -5
-35 -20 -19 -14 -32 -30 -29 -35 3 -5 -4 -9 -15 -9 -26 0 -28 18 -3 27 9 3 31
20 48 38 l31 31 -28 -2 c-21 -1 -29 3 -30 14 0 13 -2 13 -6 3 -5 -11 -7 -11
-14 0 -7 11 -9 10 -9 -3 0 -11 -5 -15 -15 -12 -8 4 -15 12 -15 20 0 15 -30 8
-42 -10 -5 -7 -8 -5 -8 4 0 13 -1 13 -10 0 -6 -10 -10 -11 -10 -2 0 22 -20 13
-21 -10 0 -22 -1 -22 -8 -3 -5 11 -7 23 -4 28 2 4 -1 7 -6 7 -6 0 -11 -7 -11
-15 0 -18 -16 -20 -23 -2 -3 6 -6 1 -6 -12 -1 -13 -4 -21 -8 -18 -3 4 -15 -7
-25 -24 -11 -17 -22 -29 -25 -26 -3 4 2 13 11 22 17 18 22 55 7 55 -5 0 -12
-6 -14 -12 -3 -7 -6 -4 -6 7 -1 15 -3 17 -10 7 -5 -9 -10 0 -14 27 -3 22 -12
48 -21 56 -15 15 -16 4 -16 -129 l0 -145 128 -4 127 -3 -140 1 -140 0 -3 219
c-2 153 1 223 9 232 9 12 87 14 430 14 366 0 420 -2 433 -16z m-3397 0 c-3 -3
-12 -4 -19 -1 -8 3 -5 6 6 6 11 1 17 -2 13 -5z m1225 -36 c-6 -6 -7 0 -4 19 5
21 7 23 10 9 2 -10 0 -22 -6 -28z m2458 12 c0 -5 -4 -10 -9 -10 -6 0 -13 5
-16 10 -3 6 1 10 9 10 9 0 16 -4 16 -10z m-2685 -10 c3 -6 -1 -13 -10 -16 -19
-8 -30 0 -20 15 8 14 22 14 30 1z m-806 -24 c13 -8 14 -161 1 -191 -8 -18 -9
-18 -9 5 -1 36 -41 79 -78 86 -28 6 -37 2 -62 -25 l-29 -31 2 30 c1 19 -1 27
-7 21 -7 -7 -17 -6 -29 0 -19 10 -19 12 -2 30 25 28 54 25 54 -6 0 -23 2 -25
21 -14 12 6 37 9 55 6 34 -6 34 -5 33 31 0 20 -3 31 -6 23 -4 -10 -7 -10 -13
-1 -4 7 -24 12 -44 12 -32 0 -47 14 -32 29 7 7 133 2 145 -5z m821 -17 c0 -5
-7 -9 -15 -9 -15 0 -20 12 -9 23 8 8 24 -1 24 -14z m385 -19 c3 -5 1 -10 -4
-10 -6 0 -11 5 -11 10 0 6 2 10 4 10 3 0 8 -4 11 -10z m-340 -14 c18 -13 18
-14 -4 -21 -25 -8 -47 7 -37 24 9 14 18 14 41 -3z m-431 -35 c15 -17 15 -19
-1 -32 -11 -9 -14 -10 -9 -1 10 16 0 15 -29 -4 -24 -16 -25 -15 -25 6 0 20 24
49 41 50 3 0 13 -8 23 -19z m3308 -1 c7 -11 17 -20 22 -20 5 0 17 -7 27 -16
15 -13 15 -18 3 -44 -8 -15 -21 -31 -29 -34 -8 -3 -15 -14 -15 -25 0 -26 -36
-47 -54 -32 -7 6 -16 8 -19 5 -3 -4 -11 5 -18 19 -6 14 -20 27 -30 30 -10 3
-21 17 -25 32 -5 22 0 33 32 65 45 44 86 52 106 20z m-203 -87 c0 -54 -4 -120
-8 -148 -6 -39 -9 -20 -12 93 -2 79 -2 146 0 148 16 15 21 -8 20 -93z m-2216
-7 c98 -70 82 -67 -23 4 -68 45 -96 59 -112 54 -11 -3 -16 -9 -11 -13 6 -3 13
-13 17 -21 3 -8 4 -5 2 8 -5 27 9 21 17 -7 7 -29 -19 -48 -44 -33 -11 7 -24
10 -29 7 -5 -3 -12 0 -16 6 -4 7 -3 9 3 6 5 -3 10 0 10 7 0 11 -4 12 -18 3
-13 -8 -15 -13 -6 -19 8 -5 2 -15 -17 -31 -25 -21 -27 -27 -16 -46 15 -28 6
-51 -19 -51 -21 0 -31 -18 -31 -60 0 -16 -4 -32 -10 -35 -5 -3 -10 -1 -10 4 0
6 -16 11 -36 11 l-36 0 4 -64 c1 -35 0 -62 -4 -59 -5 2 -8 57 -8 122 0 120 6
141 41 141 10 0 19 4 21 8 2 5 48 41 103 80 l99 71 31 -23 c16 -12 60 -44 98
-70z m-1418 54 c-3 -5 6 -12 20 -16 24 -6 36 -24 16 -24 -5 0 -13 -9 -16 -21
-8 -23 -33 -22 -48 2 -7 11 -5 23 8 42 16 25 34 40 20 17z m2029 -50 c-15 -28
-33 -55 -40 -61 -8 -6 3 17 23 50 43 74 55 81 17 11z m292 35 c-11 -8 -25 -15
-30 -15 -6 1 0 7 14 15 32 19 40 18 16 0z m-176 -50 c0 -8 -4 -15 -10 -15 -5
0 -7 7 -4 15 4 8 8 15 10 15 2 0 4 -7 4 -15z m73 8 c-7 -2 -19 -2 -25 0 -7 3
-2 5 12 5 14 0 19 -2 13 -5z m-1274 -19 c5 3 15 -2 22 -12 13 -15 12 -16 -3
-4 -15 12 -16 10 -11 -21 4 -26 1 -36 -11 -40 -11 -4 -15 -3 -11 4 4 6 -1 20
-12 32 -15 19 -16 20 0 8 9 -7 17 -9 17 -3 0 17 -27 21 -45 8 -14 -10 -15 -16
-6 -34 10 -19 9 -21 -6 -15 -20 8 -43 28 -43 38 0 3 5 3 10 0 6 -3 10 1 10 9
0 24 40 47 62 35 10 -5 22 -8 27 -5z m1393 1 c0 -5 -5 -11 -11 -13 -6 -2 -11
4 -11 13 0 9 5 15 11 13 6 -2 11 -8 11 -13z m-1052 -14 c0 -5 13 -12 29 -16
16 -3 35 -13 42 -21 10 -12 6 -12 -29 0 -27 10 -51 12 -76 6 -42 -9 -47 -4
-10 10 14 6 22 14 19 20 -3 5 1 10 9 10 9 0 16 -4 16 -9z m-1209 -24 c-10 -9
-11 -8 -5 6 3 10 9 15 12 12 3 -3 0 -11 -7 -18z m1333 -11 c-3 -8 1 -16 10
-18 12 -3 13 -6 1 -22 -8 -10 -19 -15 -25 -11 -8 5 -8 11 -1 19 6 7 8 16 5 19
-3 3 -3 10 1 16 9 16 15 13 9 -3z m883 -18 c12 -6 24 -17 27 -24 3 -8 -6 -6
-27 6 -18 11 -36 20 -42 20 -5 0 4 -9 22 -20 38 -23 53 -48 53 -90 0 -32 -25
-80 -42 -80 -5 0 -2 7 6 16 9 8 16 18 17 22 0 4 2 17 5 29 2 12 0 33 -6 47
-10 27 -64 60 -83 52 -7 -2 -4 -5 6 -5 29 -2 57 -38 57 -77 0 -27 -7 -42 -32
-65 l-33 -29 -29 30 c-35 35 -39 88 -9 122 18 21 18 21 -4 9 -51 -26 -57 -88
-14 -132 16 -16 26 -29 21 -29 -4 0 -13 7 -20 15 -7 8 -17 12 -22 9 -17 -11
-28 19 -21 59 3 24 2 37 -5 37 -31 0 27 76 73 95 29 13 51 9 102 -17z m-817 1
c0 -5 -4 -9 -10 -9 -5 0 -10 7 -10 16 0 8 5 12 10 9 6 -3 10 -10 10 -16z m220
-20 c9 -16 8 -26 -5 -45 -17 -26 -45 -32 -45 -9 0 8 9 19 21 26 15 8 18 14 10
22 -14 14 -14 27 -1 27 5 0 14 -9 20 -21z m-234 -26 c11 -50 13 -53 49 -53 19
0 35 -4 35 -10 0 -5 -20 -10 -45 -10 -45 0 -53 9 -46 53 0 4 -3 7 -7 7 -4 0
-8 9 -9 20 -3 30 16 24 23 -7z m1584 17 c0 -5 -9 -10 -20 -10 -11 0 -20 5 -20
10 0 6 9 10 20 10 11 0 20 -4 20 -10z m-1723 -32 c15 -14 23 -33 23 -54 0 -27
-6 -36 -31 -50 -30 -15 -33 -15 -58 4 -38 28 -40 73 -5 101 33 26 42 26 71 -1z
m-592 -18 c0 -18 -6 -26 -22 -28 -16 -2 -23 2 -23 13 0 12 -5 15 -16 11 -9 -3
-21 -6 -27 -7 -7 -1 -1 -4 13 -9 14 -4 -46 -8 -139 -9 -156 -1 -163 -1 -150
16 13 17 12 17 -6 2 -22 -17 -65 -23 -65 -8 0 5 8 10 18 10 16 1 16 2 0 6 -10
2 -18 8 -18 13 0 15 31 17 235 16 l200 -1 0 -25z m3012 24 c-3 -3 -12 -4 -19
-1 -8 3 -5 6 6 6 11 1 17 -2 13 -5z m-3464 -11 c-7 -2 -21 -2 -30 0 -10 3 -4
5 12 5 17 0 24 -2 18 -5z m515 0 c-10 -2 -26 -2 -35 0 -10 3 -2 5 17 5 19 0
27 -2 18 -5z m2437 -31 c13 -7 15 -12 6 -12 -17 0 -51 29 -51 43 0 6 6 4 13
-5 6 -8 21 -20 32 -26z m18 21 c-7 -2 -19 -2 -25 0 -7 3 -2 5 12 5 14 0 19 -2
13 -5z m-1813 -13 c0 -5 -4 -10 -10 -10 -5 0 -10 5 -10 10 0 6 5 10 10 10 6 0
10 -4 10 -10z m-1422 -7 c-38 -6 -40 -50 -3 -56 23 -4 23 -4 -2 -3 -24 1 -28
6 -31 34 -3 31 -2 32 30 31 30 -2 31 -2 6 -6z m1737 -3 c3 -6 -1 -13 -10 -16
-19 -8 -30 0 -20 15 8 14 22 14 30 1z m1723 -17 c-32 -2 -86 -2 -120 0 -35 2
-9 3 57 3 66 0 94 -1 63 -3z m149 -30 c-3 -10 -5 -4 -5 12 0 17 2 24 5 18 2
-7 2 -21 0 -30z m-382 6 c-4 -5 -13 -9 -22 -9 -13 0 -13 3 -3 15 13 15 35 11
25 -6z m-1535 2 c0 -5 -7 -12 -16 -15 -14 -5 -15 -4 -4 9 14 17 20 19 20 6z
m1768 2 c-38 -2 -98 -2 -135 0 -38 2 -7 3 67 3 74 0 105 -1 68 -3z m297 -8 c6
0 16 4 23 8 17 11 15 -8 -3 -23 -12 -10 -18 -10 -30 0 -8 7 -15 18 -15 24 0 7
3 8 8 1 4 -6 12 -10 17 -10z m-3233 -10 c146 0 270 -3 274 -7 4 -5 -126 -8
-289 -8 -164 0 -297 4 -297 8 0 16 14 23 29 15 9 -4 136 -8 283 -8z m898 7 c0
-12 -29 -49 -30 -38 0 5 -10 1 -22 -10 l-23 -19 23 26 c12 14 22 31 22 37 0 7
7 12 15 12 8 0 15 -4 15 -8z m50 -16 c0 -26 -23 -51 -39 -42 -14 9 8 66 25 66
8 0 14 -10 14 -24z m-362 -8 c21 -21 14 -45 -13 -45 -14 0 -25 4 -25 9 0 5 5
6 10 3 6 -3 10 -1 10 4 0 6 -4 11 -10 11 -5 0 -10 7 -10 15 0 18 21 20 38 3z
m855 -32 c18 -7 41 -24 52 -37 l20 -24 -21 18 c-23 19 -44 22 -44 6 0 -5 -5
-7 -11 -3 -7 4 -9 0 -5 -14 4 -12 2 -30 -4 -41 -9 -17 -6 -22 15 -33 l25 -14
-31 -32 c-17 -17 -35 -30 -39 -27 -4 3 -10 -4 -13 -15 -3 -12 -14 -20 -26 -20
-26 0 -26 5 1 32 14 14 18 23 10 26 -7 2 -9 8 -6 14 8 13 -33 -9 -72 -39 -32
-24 -50 -30 -39 -13 6 10 -7 14 -32 11 -7 -1 -13 5 -13 13 0 8 -5 18 -12 22
-7 4 -8 3 -4 -4 5 -8 2 -10 -8 -6 -9 3 -17 2 -17 -2 -8 -56 -7 -73 2 -96 6
-16 15 -28 20 -28 5 0 9 -7 9 -15 0 -8 19 -28 42 -45 22 -16 36 -30 31 -30 -6
0 -31 18 -56 41 -84 74 -99 188 -36 282 39 59 95 87 172 87 32 0 72 -6 90 -14z
m1646 -10 c-6 -7 -97 -8 -304 -5 l-190 3 245 6 c238 5 258 5 249 -4z m-2804
-256 l1 -235 -6 230 -5 230 -142 3 c-169 3 -152 24 -156 -188 l-3 -145 -2 161
c-1 115 1 163 10 172 9 9 53 12 158 10 l145 -3 0 -235z m403 220 c32 -14 37
-30 12 -38 -7 -3 -10 0 -7 6 4 5 -7 15 -23 22 -17 7 -30 17 -30 22 0 5 3 8 8
6 4 -3 22 -11 40 -18z m163 0 c-13 -11 -28 -20 -35 -20 -6 0 3 9 19 19 39 25
46 25 16 1z m114 0 c-20 -5 -54 -27 -156 -102 -28 -21 -56 -35 -62 -31 -7 3
-53 34 -102 68 -50 35 -99 65 -110 68 -13 3 -9 5 12 6 20 1 39 -6 50 -18 10
-10 46 -35 80 -55 34 -20 65 -41 69 -47 4 -7 12 -5 22 5 10 8 35 25 58 38 23
13 63 37 89 55 26 18 53 29 59 26 6 -4 3 -9 -9 -13z m-535 -5 c14 -17 0 -21
-16 -5 -14 14 -44 2 -45 -19 0 -10 -2 -12 -6 -3 -15 37 40 59 67 27z m1648 3
c19 -19 15 -24 -20 -26 -42 -3 -46 -9 -17 -21 14 -6 17 -10 9 -10 -16 -1 -40
17 -40 30 0 12 30 39 44 39 6 0 17 -5 24 -12z m-378 -24 c0 -8 -7 -14 -15 -14
-15 0 -21 21 -9 33 10 9 24 -2 24 -19z m170 6 c0 -5 -4 -10 -10 -10 -5 0 -10
5 -10 10 0 6 5 10 10 10 6 0 10 -4 10 -10z m-1620 -33 c0 -18 -6 -45 -12 -60
-12 -25 -17 -27 -88 -28 -124 -2 -139 -17 -20 -19 l105 -3 -98 -9 c-54 -6
-104 -7 -112 -4 -11 4 -15 24 -15 81 l0 75 120 0 120 0 0 -33z m152 7 c-2 -10
-6 -59 -10 -109 l-6 -90 -10 80 c-6 44 -8 82 -3 83 4 2 7 17 7 34 0 19 4 28
13 25 6 -2 11 -13 9 -23z m-558 0 c20 -19 20 -71 1 -104 -8 -14 -14 -44 -15
-67 0 -36 -3 -43 -20 -43 -16 0 -20 7 -20 30 0 17 -11 53 -25 80 -30 60 -31
74 -5 100 24 24 63 26 84 4z m2625 7 c8 -5 -36 -10 -115 -13 -71 -2 -131 -3
-133 -2 -1 2 0 7 4 13 8 13 224 15 244 2z m-1695 -7 c9 -3 13 -11 9 -18 -4 -6
-8 -15 -8 -21 0 -5 -9 -10 -20 -10 -23 0 -33 34 -13 46 16 11 13 10 32 3z
m246 -32 c0 -13 -12 -22 -22 -16 -10 6 -1 24 13 24 5 0 9 -4 9 -8z m1727 -63
l134 -71 -54 -33 c-86 -52 -229 -125 -245 -125 -8 0 -40 15 -71 34 -111 66
-211 117 -211 108 0 -13 54 -48 179 -117 97 -54 105 -56 129 -44 87 45 260
144 276 158 16 13 18 13 14 1 -5 -16 -265 -166 -304 -176 -18 -5 -60 15 -169
76 -80 45 -144 88 -142 94 4 12 294 164 315 165 8 1 74 -31 149 -70z m-2325 4
c-5 -101 -9 -111 -11 -25 0 45 2 82 7 82 4 0 6 -26 4 -57z m88 47 c0 -5 -2
-10 -4 -10 -3 0 -8 5 -11 10 -3 6 -1 10 4 10 6 0 11 -4 11 -10z m1290 -15 c0
-8 -7 -15 -15 -15 -8 0 -15 7 -15 15 0 8 7 15 15 15 8 0 15 -7 15 -15z m302
-72 c-2 -52 0 -75 6 -68 6 6 12 24 15 40 3 25 4 22 6 -11 1 -37 -2 -43 -24
-48 -33 -8 -45 -1 -45 30 0 30 17 32 23 2 2 -13 5 12 6 55 0 42 4 77 9 77 4 0
6 -35 4 -77z m-92 37 c0 -16 -5 -30 -10 -30 -6 0 -10 6 -9 13 4 33 -2 36 -78
40 l-78 3 88 2 87 2 0 -30z m-1050 -17 c0 -12 -2 -12 -15 1 -8 8 -15 17 -15
20 0 3 7 3 15 0 8 -4 15 -13 15 -21z m80 8 c0 -5 -9 -11 -20 -14 -20 -5 -26 3
-13 16 9 10 33 8 33 -2z m1147 -148 c-2 -32 -3 -8 -3 52 0 61 1 87 3 58 2 -29
2 -78 0 -110z m93 147 c0 -5 -4 -10 -10 -10 -5 0 -10 5 -10 10 0 6 5 10 10 10
6 0 10 -4 10 -10z m-1662 -18 c2 -7 -5 -12 -15 -12 -15 0 -16 -2 -3 -11 13 -9
13 -10 0 -6 -15 4 -21 24 -12 40 5 11 25 4 30 -11z m293 -18 c19 -17 14 -54
-7 -54 -10 0 -14 -14 -16 -42 l-1 -43 -6 45 c-3 25 -9 44 -13 43 -32 -11 -38
19 -11 49 20 22 31 23 54 2z m646 -26 c-3 -8 -6 -5 -6 6 -1 11 2 17 5 13 3 -3
4 -12 1 -19z m306 7 c-4 -15 -36 -12 -41 3 -3 9 3 13 19 10 13 -1 23 -7 22
-13z m-1693 -5 c17 0 49 -66 46 -95 -4 -33 -47 -75 -77 -75 -49 0 -99 45 -99
89 0 43 67 96 108 85 8 -2 17 -4 22 -4z m430 -19 c0 -5 -11 -11 -25 -13 -26
-5 -29 -1 -19 26 5 12 10 13 25 5 10 -5 19 -14 19 -18z m-64 0 c-7 -10 18 -34
26 -25 3 3 9 1 13 -5 10 -17 -31 -13 -45 4 -10 13 -7 35 6 35 3 0 3 -4 0 -9z
m1308 -41 c6 0 18 6 25 13 11 10 13 9 9 -3 -9 -30 -78 -19 -78 12 0 5 7 2 16
-6 8 -9 21 -16 28 -16z m-1036 -15 c22 -25 21 -28 -8 -26 -21 1 -48 -21 -52
-44 -2 -14 2 -19 12 -17 11 3 12 0 4 -8 -7 -7 -20 -6 -46 4 -33 14 -37 14 -57
-5 -11 -11 -21 -23 -21 -27 -1 -4 -7 -29 -16 -57 l-14 -50 6 58 c12 120 44
163 86 117 l20 -21 14 26 c8 15 11 31 8 37 -10 15 4 38 24 38 10 0 28 -11 40
-25z m206 3 c3 -13 5 -34 5 -48 l-1 -25 -10 27 c-8 23 -14 27 -34 22 -28 -7
-31 2 -7 28 22 24 39 23 47 -4z m516 9 c0 -2 -15 -16 -32 -33 l-33 -29 29 33
c28 30 36 37 36 29z m271 -18 c6 -12 13 -35 16 -50 3 -24 0 -31 -19 -38 -20
-8 -17 -10 24 -16 47 -7 50 -6 96 35 10 8 34 24 54 34 35 19 37 19 63 2 14 -9
25 -22 22 -29 -2 -6 -37 -29 -78 -51 -68 -37 -80 -40 -154 -41 -79 0 -81 1
-157 49 -43 27 -75 53 -72 57 9 15 60 38 116 53 71 20 76 19 89 -5z m494 9
c-4 -12 225 -155 266 -165 16 -5 44 9 177 85 23 13 42 21 42 19 0 -9 -197
-117 -213 -117 -9 0 -76 36 -151 80 -74 44 -140 80 -145 80 -15 0 -14 17 2 23
21 9 27 7 22 -5z m615 7 c0 -3 -27 -19 -61 -35 -34 -17 -58 -27 -55 -22 3 5
23 17 46 27 22 10 40 22 40 27 0 4 7 8 15 8 8 0 15 -2 15 -5z m-1786 -92 c12
-34 16 -79 14 -172 l-2 -126 -5 135 c-6 126 -18 180 -40 180 -4 0 -23 -10 -41
-22 -37 -25 -38 -43 -3 -43 20 1 21 -1 7 -17 -9 -9 -13 -22 -9 -27 3 -6 -1
-11 -9 -11 -11 0 -16 -11 -18 -37 l-1 -38 -4 38 c-3 29 -8 37 -21 35 -12 -3
-17 -13 -16 -36 1 -17 -2 -29 -7 -26 -5 3 -9 13 -9 23 0 18 -66 71 -88 71 -15
0 -88 -45 -97 -60 -11 -19 -17 -163 -6 -156 6 4 8 -2 6 -14 -3 -17 0 -19 23
-15 21 4 23 3 7 -3 -19 -9 -19 -9 3 -21 25 -13 53 -4 31 10 -11 7 -10 9 4 9 9
0 26 -5 36 -12 15 -9 23 -7 41 10 12 11 35 26 51 32 16 7 29 16 29 20 0 4 9
10 20 13 33 8 24 0 -45 -44 -36 -22 -65 -43 -65 -45 0 -2 14 -11 31 -20 25
-13 37 -14 58 -5 24 11 25 10 7 -4 -26 -20 -27 -19 -88 10 -51 24 -86 27 -73
5 4 -6 -43 14 -104 45 -108 54 -146 79 -76 49 33 -14 35 -13 35 6 0 12 9 30
20 42 21 23 27 44 10 33 -5 -3 -10 -2 -10 2 0 5 8 13 19 20 10 6 21 24 24 40
4 20 19 36 56 58 50 29 68 50 34 39 -15 -5 -16 -4 -3 5 19 13 47 14 55 1 3 -6
-1 -7 -9 -4 -32 12 -14 -13 24 -35 22 -12 38 -26 35 -31 -6 -10 36 0 53 13 6
5 12 12 12 16 0 3 -33 24 -74 46 l-74 39 -76 -46 c-42 -26 -76 -43 -76 -38 0
5 14 16 30 25 17 9 30 21 30 27 0 6 3 9 6 5 3 -3 24 5 45 19 21 13 41 24 45
24 4 0 32 -16 64 -35 64 -39 70 -41 70 -22 0 11 76 66 92 67 3 0 13 -21 22
-47z m1785 13 c-2 -2 -77 -48 -167 -102 -141 -84 -165 -96 -177 -83 -12 12
-10 14 18 15 31 1 70 22 244 133 42 27 79 48 82 45 2 -2 2 -6 0 -8z m-2463 -9
c9 3 14 0 12 -8 -2 -8 2 -13 8 -12 5 1 15 -7 22 -18 11 -16 9 -19 -8 -19 -12
0 -25 -10 -32 -25 -10 -23 -12 -23 -24 -7 -18 23 -17 32 3 32 9 0 14 3 10 6
-3 4 -20 1 -38 -5 -37 -13 -52 -5 -26 14 10 7 17 17 16 21 -4 21 2 26 16 14
12 -10 15 -9 16 6 0 11 3 14 5 7 3 -7 12 -9 20 -6z m971 7 c-3 -3 -12 -4 -19
-1 -8 3 -5 6 6 6 11 1 17 -2 13 -5z m854 -16 c11 -21 11 -22 -4 -9 -10 7 -17
17 -17 22 0 15 9 10 21 -13z m-2381 2 c0 -5 -4 -10 -10 -10 -5 0 -10 5 -10 10
0 6 5 10 10 10 6 0 10 -4 10 -10z m2375 -49 l-80 -6 -6 -65 -6 -65 -1 57 c-3
88 -2 88 92 86 l81 -2 -80 -5z m61 -46 c2 -11 5 -47 6 -80 l3 -59 -30 -3 c-16
-2 -49 -1 -72 2 l-43 6 0 54 c0 30 4 56 9 59 5 3 7 15 4 27 -5 19 -2 20 57 17
54 -3 64 -6 66 -23z m-1566 6 c0 -6 -4 -13 -10 -16 -5 -3 -10 1 -10 9 0 9 5
16 10 16 6 0 10 -4 10 -9z m690 -11 c0 -5 -4 -10 -10 -10 -5 0 -10 5 -10 10 0
6 5 10 10 10 6 0 10 -4 10 -10z m-175 -9 c3 -5 1 -12 -5 -16 -5 -3 -10 1 -10
9 0 18 6 21 15 7z m-395 -18 c-3 -25 10 -63 21 -63 5 0 9 7 9 15 0 8 5 15 11
15 6 0 9 -10 7 -23 -4 -19 0 -23 16 -22 22 2 53 -22 42 -32 -8 -8 -56 -10 -51
-2 9 14 -53 48 -76 42 -35 -9 -63 -30 -50 -38 14 -8 14 -35 0 -35 -5 0 -8 4
-4 9 3 6 -3 14 -13 20 -9 5 -18 20 -19 33 0 13 1 17 4 11 7 -19 31 -15 43 7 7
12 16 17 27 13 10 -4 14 -2 10 4 -4 6 -1 22 6 37 14 30 19 33 17 9z m500 7 c0
-5 -4 -10 -10 -10 -5 0 -10 5 -10 10 0 6 5 10 10 10 6 0 10 -4 10 -10z m475 1
c-25 -5 -27 -8 -12 -14 27 -10 10 -27 -28 -27 -27 0 -33 3 -28 16 3 9 0 20 -8
25 -9 5 8 8 46 8 45 -1 52 -3 30 -8z m-925 -17 c0 -8 -4 -12 -10 -9 -5 3 -10
10 -10 16 0 5 5 9 10 9 6 0 10 -7 10 -16z m737 -35 c3 -17 0 -18 -17 -9 -16 9
-18 13 -8 24 15 16 21 13 25 -15z m-1050 -56 c-2 -16 -4 -5 -4 22 0 28 2 40 4
28 2 -13 2 -35 0 -50z m183 47 c0 -5 -2 -10 -4 -10 -3 0 -8 5 -11 10 -3 6 -1
10 4 10 6 0 11 -4 11 -10z m697 -55 c1 -33 3 -76 5 -95 l3 -35 -43 2 c-51 2
-121 -31 -138 -66 -18 -36 -40 -44 -66 -27 -13 8 -42 19 -65 26 -25 6 -47 19
-54 32 -11 20 -9 20 24 14 74 -14 120 34 110 113 -4 30 -2 46 7 51 23 14 40
-1 40 -35 0 -55 22 -62 68 -20 22 19 43 48 47 63 7 30 23 43 45 39 11 -2 15
-18 17 -62z m-477 38 c0 -10 -4 -14 -8 -8 -4 6 -11 13 -16 18 -5 4 -2 7 7 7
10 0 17 -8 17 -17z m984 1 c3 -8 2 -12 -4 -9 -6 3 -10 10 -10 16 0 14 7 11 14
-7z m-334 -10 c0 -2 -7 -4 -15 -4 -8 0 -15 4 -15 10 0 5 7 7 15 4 8 -4 15 -8
15 -10z m-570 -31 c0 -7 -39 17 -46 28 -3 6 5 3 20 -6 14 -10 26 -19 26 -22z
m770 -2 c0 -43 -57 -69 -67 -31 -3 11 -9 20 -14 20 -5 0 -9 6 -9 13 0 7 17 13
45 15 39 2 45 0 45 -17z m-133 -128 c-2 -16 -4 -3 -4 27 0 30 2 43 4 28 2 -16
2 -40 0 -55z m-647 -89 c0 -16 -16 -19 -25 -4 -8 13 4 32 16 25 5 -4 9 -13 9
-21z"/>
<path d="M2397 4793 c4 -11 3 -14 -5 -9 -7 4 -12 2 -12 -3 0 -17 15 -13 35 9
18 19 17 20 -3 20 -16 0 -20 -4 -15 -17z"/>
<path d="M2548 4771 c12 -12 27 -21 33 -19 5 2 -5 12 -23 22 l-33 19 23 -22z"/>
<path d="M2330 4716 c0 -8 4 -17 9 -20 5 -4 7 3 4 14 -6 23 -13 26 -13 6z"/>
<path d="M2593 4697 c19 -16 23 -37 6 -37 -5 0 -7 -5 -3 -12 5 -8 11 -6 20 7
15 21 11 31 -19 45 -20 10 -20 10 -4 -3z"/>
<path d="M2310 4665 c0 -18 4 -23 15 -19 8 4 15 10 15 16 0 5 -4 6 -10 3 -6
-3 -7 1 -4 9 3 9 1 16 -5 16 -6 0 -11 -11 -11 -25z"/>
<path d="M2322 4624 c-7 -8 -8 -14 -3 -14 10 0 25 19 20 25 -2 1 -10 -3 -17
-11z"/>
<path d="M2398 4513 c7 -3 16 -2 19 1 4 3 -2 6 -13 5 -11 0 -14 -3 -6 -6z"/>
<path d="M2927 4593 c-14 -13 -6 -33 13 -33 22 0 23 1 14 24 -7 17 -16 20 -27
9z"/>
<path d="M2992 4580 c-12 -20 -6 -25 22 -14 8 3 12 12 9 20 -7 19 -16 18 -31
-6z"/>
<path d="M2685 4426 c-39 -28 -13 -105 36 -106 26 0 62 45 54 69 -15 47 -54
64 -90 37z m63 -37 c2 -14 -3 -31 -11 -38 -16 -12 -50 -4 -41 10 3 5 0 9 -5 9
-17 0 -13 28 7 39 27 16 47 8 50 -20z"/>
<path d="M2215 4350 c-3 -5 1 -10 10 -10 9 0 13 5 10 10 -3 6 -8 10 -10 10 -2
0 -7 -4 -10 -10z"/>
<path d="M2425 3798 c-31 -18 -13 -28 50 -28 51 0 65 3 65 15 0 8 -3 15 -7 16
-69 5 -95 4 -108 -3z"/>
<path d="M1538 3802 c-8 -31 21 -59 55 -53 4 0 7 -3 7 -9 0 -5 6 -10 12 -10 7
0 -1 13 -17 28 -17 16 -35 37 -41 47 -10 18 -11 18 -16 -3z"/>
<path d="M1630 3722 c0 -5 11 -14 25 -20 29 -13 31 -10 9 12 -17 17 -34 21
-34 8z"/>
<path d="M557 3773 c-32 -62 -57 -117 -57 -123 0 -6 47 -10 126 -10 97 0 125
3 121 13 -25 65 -102 217 -110 217 -5 0 -6 -7 -3 -16 3 -9 6 -35 6 -59 0 -26
6 -50 16 -59 14 -15 14 -16 0 -16 -10 0 -16 -9 -17 -22 -1 -22 -1 -22 -9 2 -8
24 -8 24 -9 3 -1 -32 -21 -29 -21 3 0 16 -4 23 -11 18 -8 -5 -8 -1 0 14 6 11
11 38 11 59 0 22 5 44 11 50 6 6 9 17 7 25 -3 7 -30 -38 -61 -99z"/>
<path d="M622 3780 c0 -19 2 -27 5 -17 2 9 2 25 0 35 -3 9 -5 1 -5 -18z"/>
<path d="M1047 3644 c-3 -3 -3 -13 0 -22 4 -10 2 -13 -5 -8 -6 3 -14 1 -18 -5
-4 -7 -3 -9 4 -5 5 3 12 2 14 -3 1 -5 11 2 21 15 16 22 16 23 1 17 -12 -4 -15
-3 -10 5 8 13 3 16 -7 6z"/>
<path d="M1062 3575 c0 -16 2 -22 5 -12 2 9 2 23 0 30 -3 6 -5 -1 -5 -18z"/>
<path d="M4169 3559 c-14 -14 -18 -27 -13 -42 9 -32 34 -57 56 -57 24 0 58 35
58 60 0 11 -9 29 -20 40 -26 26 -55 25 -81 -1z m67 -22 c2 -14 -3 -17 -19 -13
-12 3 -16 3 -8 0 11 -5 11 -8 0 -16 -9 -5 -5 -6 14 -2 32 7 36 -1 7 -16 -39
-21 -71 19 -46 58 11 19 49 10 52 -11z"/>
<path d="M4186 3541 c-3 -4 6 -6 19 -3 14 2 25 6 25 8 0 8 -39 4 -44 -5z"/>
<path d="M2477 3580 c29 -19 34 -20 58 -7 l27 14 -38 0 c-22 0 -48 3 -59 8
-11 4 -6 -3 12 -15z"/>
<path d="M2416 3578 c5 -8 2 -9 -10 -5 -15 6 -14 3 4 -23 14 -19 26 -27 37
-23 13 5 12 9 -7 23 -17 12 -19 19 -9 22 9 3 8 6 -5 11 -11 5 -15 3 -10 -5z"/>
<path d="M2120 3552 c-86 -31 -173 -79 -165 -91 2 -5 -9 -14 -25 -21 -34 -14
-40 -30 -11 -30 43 0 121 34 153 67 32 34 32 35 8 29 -21 -6 -22 -5 -7 4 9 6
22 8 27 5 6 -3 10 -2 10 3 0 6 10 13 23 16 19 5 80 46 67 45 -3 0 -39 -12 -80
-27z m-110 -77 c-14 -8 -29 -14 -35 -14 -5 0 1 6 15 14 14 8 30 14 35 14 6 0
-1 -6 -15 -14z"/>
<path d="M2180 3541 c-64 -38 -113 -81 -93 -81 20 0 119 60 147 89 40 41 24
39 -54 -8z"/>
<path d="M2450 3570 c0 -12 28 -25 36 -17 3 3 -4 10 -15 17 -15 7 -21 7 -21 0z"/>
<path d="M2536 3558 c-34 -17 -37 -22 -22 -30 10 -5 18 -8 19 -6 1 1 13 15 26
31 29 32 28 32 -23 5z"/>
<path d="M2544 3510 c-31 -39 -54 -73 -50 -77 3 -3 14 1 24 10 25 23 54 21 75
-3 9 -11 25 -20 34 -19 14 0 13 2 -4 9 -13 5 -23 12 -23 15 0 4 4 4 9 1 11 -7
41 3 41 14 0 4 -19 11 -42 14 -58 9 -84 25 -43 27 17 1 41 1 55 0 17 0 20 2
10 7 -21 10 -24 33 -4 25 15 -5 14 -3 -1 20 -9 15 -19 27 -21 27 -2 0 -29 -32
-60 -70z"/>
<path d="M2730 3543 c42 -37 140 -89 140 -74 0 17 -148 111 -175 111 -3 0 13
-16 35 -37z"/>
<path d="M2809 3545 c25 -14 50 -24 56 -21 7 2 18 0 26 -6 11 -8 11 -9 -3 -5
-23 8 -30 -3 -13 -19 11 -11 19 -12 40 -2 l26 12 -33 17 c-18 10 -41 15 -52
12 -11 -3 -16 -1 -12 5 6 10 -6 16 -59 28 -11 3 0 -6 24 -21z"/>
<path d="M2376 3550 c16 -30 65 -100 75 -106 18 -11 -18 49 -51 86 -17 19 -28
28 -24 20z"/>
<path d="M2232 3518 c-7 -7 -12 -17 -12 -24 0 -7 -6 -15 -12 -17 -7 -3 -3 -6
10 -6 13 -1 21 -5 18 -10 -3 -5 1 -12 10 -15 23 -9 34 -7 34 5 0 5 -5 7 -11 3
-8 -4 -7 0 1 15 10 20 9 21 -15 15 -24 -6 -25 -5 -15 20 11 29 9 31 -8 14z"/>
<path d="M2451 3521 c-11 -7 -10 -13 4 -35 21 -32 28 -32 49 -1 15 23 15 25
-3 35 -24 12 -32 12 -50 1z"/>
<path d="M2753 3484 c24 -29 22 -33 -15 -28 -20 4 -45 -1 -63 -10 -16 -9 -24
-16 -17 -16 7 0 21 4 31 10 26 13 92 -6 84 -25 -3 -8 0 -15 7 -15 6 0 9 -4 6
-9 -6 -9 34 -24 42 -16 6 6 -56 101 -76 117 -15 11 -15 10 1 -8z"/>
<path d="M2133 3466 c-23 -12 -42 -27 -43 -35 0 -7 -6 -11 -14 -8 -8 3 -21 -2
-29 -11 -32 -38 -30 -42 18 -42 39 0 46 3 41 16 -3 8 -2 13 2 10 4 -2 21 18
39 45 17 27 31 48 30 48 -1 -1 -21 -11 -44 -23z"/>
<path d="M2790 3476 c0 -10 50 -34 54 -27 3 5 -8 14 -24 20 -17 5 -30 8 -30 7z"/>
<path d="M2942 3456 c-13 -29 -5 -34 80 -43 33 -3 55 -10 51 -14 -7 -7 -34 -3
-121 16 -23 6 -23 6 -7 -23 17 -27 19 -28 67 -21 80 13 91 18 77 36 -15 18
-109 73 -125 73 -6 0 -16 -11 -22 -24z"/>
<path d="M2316 3454 c-26 -25 -19 -31 29 -24 48 7 72 20 37 20 -11 0 -24 5
-27 10 -9 14 -21 12 -39 -6z"/>
<path d="M2195 3430 c-3 -5 -2 -10 4 -10 5 0 13 5 16 10 3 6 2 10 -4 10 -5 0
-13 -4 -16 -10z"/>
<path d="M2875 3414 c-24 -37 -13 -54 36 -54 32 0 39 3 32 13 -5 6 -19 24 -30
39 l-21 28 -17 -26z"/>
<path d="M1968 3408 c-56 -24 -61 -38 -15 -38 31 0 52 14 71 48 9 16 0 14 -56
-10z"/>
<path d="M2247 3419 c7 -7 15 -10 18 -7 3 3 -2 9 -12 12 -14 6 -15 5 -6 -5z"/>
<path d="M2680 3416 c0 -2 11 -6 25 -8 13 -3 22 -1 19 3 -5 9 -44 13 -44 5z"/>
<path d="M3023 3363 c-31 -4 -37 -17 -23 -53 2 -3 2 -9 1 -13 -1 -5 3 -6 9 -2
8 5 7 11 -1 21 -15 18 11 20 30 2 11 -10 13 -10 7 0 -12 21 3 33 27 20 19 -10
20 -9 10 4 -7 8 -10 18 -6 21 3 4 0 6 -8 5 -8 0 -29 -3 -46 -5z"/>
<path d="M1733 3307 c-44 -47 -143 -187 -143 -203 0 -10 45 9 58 25 8 9 10 10
7 3 -6 -10 1 -12 32 -6 21 3 41 8 45 10 6 4 50 139 52 164 1 9 6 21 10 29 5 7
4 17 -1 22 -6 6 -29 -11 -60 -44z"/>
<path d="M1913 3345 c0 -8 5 -11 10 -8 6 4 8 0 4 -10 -9 -23 6 -21 27 2 15 17
15 19 1 25 -27 10 -42 7 -42 -9z"/>
<path d="M1968 3313 c-23 -38 -35 -88 -18 -78 6 3 7 -1 4 -9 -7 -18 -24 -11
-24 10 0 8 -5 14 -11 14 -5 0 -8 -4 -5 -8 2 -4 -5 -14 -17 -22 -20 -12 -21
-12 -8 4 12 14 12 19 2 25 -9 6 -6 10 10 14 19 5 20 8 9 21 -18 23 -24 20 -37
-15 -8 -20 -16 -28 -24 -23 -7 4 -9 3 -6 -3 7 -11 -9 -71 -22 -86 -4 -4 -5 35
-3 85 2 51 1 90 -2 87 -8 -8 -66 -170 -66 -186 0 -9 22 -13 75 -13 72 0 77 1
105 33 16 17 30 38 30 45 0 6 4 11 9 10 5 -2 33 24 64 57 l55 60 -26 6 c-57
14 -70 10 -94 -28z m-88 -117 c0 -2 -8 -10 -17 -17 -16 -13 -17 -12 -4 4 13
16 21 21 21 13z"/>
<path d="M2811 3334 c6 -8 16 -14 22 -14 6 0 19 -8 30 -17 20 -18 20 -18 2 13
-12 21 -26 32 -42 32 -19 0 -21 -3 -12 -14z"/>
<path d="M2877 3333 c13 -35 63 -101 115 -151 l53 -52 83 0 c66 0 82 3 82 15
0 8 -14 49 -30 91 -17 42 -29 78 -27 80 5 5 67 -141 67 -156 0 -6 4 -8 10 -5
6 3 7 -1 4 -9 -5 -13 2 -16 32 -16 l37 0 -20 23 c-11 12 -44 59 -74 104 -40
61 -56 78 -62 67 -5 -8 -6 -23 -2 -33 3 -10 9 -48 13 -85 9 -73 8 -74 -60 -40
-15 8 -33 14 -41 14 -7 0 -20 15 -28 33 -9 22 -22 33 -39 35 -26 3 -99 56 -90
65 3 3 25 -8 49 -24 24 -17 45 -28 48 -26 2 3 -4 23 -13 46 -16 40 -17 41 -65
41 -42 0 -48 -2 -42 -17z"/>
<path d="M3086 3311 l-28 -29 23 -12 c13 -7 32 -21 43 -32 23 -25 29 -18 16
16 -5 15 -10 41 -10 57 0 37 -9 37 -44 0z"/>
<path d="M3190 3312 c0 -9 10 -22 95 -132 19 -25 35 -50 35 -56 0 -11 40 -27
48 -19 3 3 -42 70 -58 85 -3 3 -14 18 -24 34 -40 62 -96 114 -96 88z"/>
<path d="M3025 3290 c-3 -6 1 -7 9 -4 18 7 21 14 7 14 -6 0 -13 -4 -16 -10z"/>
<path d="M2713 3250 c-13 -5 -23 -15 -22 -22 0 -10 2 -10 6 0 2 6 11 12 18 12
8 0 17 5 20 10 7 12 7 12 -22 0z"/>
<path d="M3034 3243 c3 -8 6 -18 6 -22 0 -8 46 -36 81 -50 41 -15 34 23 -9 51
-48 32 -86 42 -78 21z"/>
<path d="M2750 3240 c-17 -11 12 -53 48 -70 15 -7 22 -15 15 -17 -6 -2 -29 5
-50 15 -21 11 -54 23 -73 27 l-35 7 30 -23 c17 -13 32 -26 35 -29 3 -4 20 -13
38 -21 17 -8 32 -18 32 -23 0 -6 8 -1 18 10 25 26 56 74 51 78 -24 20 -99 52
-109 46z"/>
<path d="M2665 3230 c3 -5 8 -10 11 -10 2 0 4 5 4 10 0 6 -5 10 -11 10 -5 0
-7 -4 -4 -10z"/>
<path d="M2205 3220 c-3 -5 1 -10 9 -10 8 0 18 5 21 10 3 6 -1 10 -9 10 -8 0
-18 -4 -21 -10z"/>
<path d="M2135 3210 c-3 -5 -1 -10 4 -10 6 0 11 5 11 10 0 6 -2 10 -4 10 -3 0
-8 -4 -11 -10z"/>
<path d="M2261 3183 l-13 -28 21 22 c23 24 26 33 13 33 -5 0 -14 -12 -21 -27z"/>
<path d="M2480 3170 c12 -8 12 -10 -3 -16 -9 -3 -26 -4 -37 -1 -11 3 -20 1
-20 -4 0 -9 20 -13 51 -11 12 1 16 -6 16 -26 -1 -25 -5 -27 -39 -27 -49 1 -56
10 -21 29 32 17 27 21 -11 6 -20 -7 -24 -6 -19 5 3 8 0 15 -6 15 -6 0 -11 -18
-11 -43 0 -48 27 -84 54 -74 8 3 16 1 18 -5 3 -7 10 -5 20 5 8 9 18 14 21 11
3 -3 14 7 23 22 14 21 15 29 6 32 -10 3 -10 7 0 19 10 12 9 18 -7 29 -13 9
-14 14 -5 14 9 0 7 5 -6 15 -10 8 -23 14 -29 15 -5 0 -3 -4 5 -10z"/>
<path d="M2445 3110 c-16 -11 -23 -20 -15 -19 23 1 45 13 48 27 3 16 2 16 -33
-8z"/>
<path d="M1750 3105 c0 -8 7 -42 17 -75 l16 -60 25 38 c14 20 36 50 50 67 l25
30 -24 6 c-13 4 -43 7 -66 8 -32 1 -43 -3 -43 -14z"/>
<path d="M3086 3078 c22 -24 50 -61 64 -83 l24 -39 17 56 c9 30 19 67 23 82
l6 26 -86 0 -87 0 39 -42z"/>
<path d="M2135 3040 c3 -5 8 -10 11 -10 2 0 4 5 4 10 0 6 -5 10 -11 10 -5 0
-7 -4 -4 -10z"/>
<path d="M2574 2945 c1 -8 8 -21 14 -27 9 -9 12 -8 12 4 0 8 -6 21 -14 27 -11
10 -14 9 -12 -4z"/>
<path d="M2307 2932 c-8 -9 -18 -30 -21 -47 -11 -57 -20 -110 -20 -132 -1 -13
-4 -23 -7 -23 -4 0 -7 -10 -7 -22 -1 -13 -7 -49 -15 -80 -10 -39 -11 -55 -3
-51 7 4 7 1 -1 -8 -14 -17 -33 -95 -26 -103 3 -3 15 2 27 10 20 12 23 12 23
-1 0 -10 -6 -14 -16 -10 -13 5 -14 4 -3 -6 9 -10 15 -10 24 -1 7 7 8 12 4 12
-5 0 -2 8 5 17 8 9 9 14 3 10 -6 -3 -17 2 -25 11 -13 15 -12 19 5 36 17 17 19
17 13 2 -5 -12 -3 -16 5 -14 17 6 17 29 1 49 -11 13 -11 16 2 16 8 0 11 -5 8
-10 -3 -6 -1 -7 6 -3 6 4 9 11 6 16 -3 5 -1 11 4 15 6 3 7 13 4 21 -3 9 0 20
7 24 7 4 9 13 5 19 -5 9 -11 9 -23 0 -10 -6 -5 0 11 14 16 15 27 37 27 52 0
14 3 25 8 25 4 0 6 -204 4 -453 -2 -313 0 -462 8 -482 8 -21 13 -26 19 -16 6
10 10 9 15 -4 9 -24 27 -8 22 20 -3 17 -1 22 9 19 19 -8 22 37 24 341 1 195 5
273 14 282 9 10 11 -31 9 -184 -3 -153 0 -198 10 -204 10 -7 10 -9 -2 -9 -13
0 -13 -1 0 -10 10 -6 11 -10 3 -10 -7 0 -13 -5 -13 -11 0 -5 4 -8 8 -5 5 3 9
-1 9 -9 0 -8 -4 -12 -9 -9 -7 5 -6 -35 2 -56 1 -3 1 -20 0 -39 -1 -18 2 -31 7
-28 6 4 10 0 10 -8 0 -8 -4 -12 -9 -9 -13 8 -10 -10 5 -25 10 -11 9 -12 -3 -6
-12 6 -13 5 -2 -6 6 -7 12 -21 12 -31 0 -10 5 -18 10 -18 6 0 10 8 10 18 0 12
3 13 8 5 6 -10 12 -10 28 3 10 8 12 13 4 9 -10 -4 -10 -2 2 8 16 12 17 49 13
473 -3 252 -2 453 1 447 3 -7 13 -13 22 -13 14 0 14 -2 3 -9 -9 -6 -12 -18 -7
-37 7 -29 11 -63 14 -110 2 -22 6 -26 27 -22 20 4 23 3 14 -8 -9 -11 -8 -14 1
-14 8 0 10 -3 7 -6 -4 -4 -13 -1 -22 6 -17 14 -20 3 -5 -20 5 -8 12 -11 15 -8
4 4 18 3 31 -2 21 -8 23 -7 21 11 -2 11 -10 25 -18 30 -8 5 -9 9 -3 9 6 0 11
7 11 15 0 8 -3 15 -7 15 -4 0 -5 12 -2 26 4 20 2 25 -8 19 -9 -5 -11 -4 -6 3
4 6 2 29 -4 51 -8 31 -14 39 -28 35 -16 -5 -16 -5 0 5 9 6 15 19 14 29 -2 9
-7 45 -11 80 -4 34 -11 62 -17 62 -5 0 -6 -5 -2 -11 3 -6 -5 -4 -19 5 -23 16
-26 16 -41 1 -14 -15 -16 -15 -16 -1 0 9 -3 16 -7 17 -45 5 -60 3 -60 -8 0 -7
5 -9 11 -6 6 3 8 3 4 -2 -4 -4 -3 -14 4 -22 7 -9 -5 -7 -36 6 -25 11 -46 17
-46 12 0 -5 -10 -7 -22 -6 -33 3 -34 4 -22 13 8 5 4 13 -11 24 -21 16 -24 16
-38 0z m33 -20 c-7 -3 -3 -13 12 -29 l23 -26 -22 14 c-13 8 -23 17 -23 22 0 4
-4 6 -9 3 -5 -4 -8 -17 -7 -31 2 -13 0 -22 -4 -20 -10 6 -6 67 4 84 6 9 11 9
23 -1 11 -8 12 -13 3 -16z m176 -17 c1 -8 -3 -18 -8 -22 -6 -3 -8 -1 -4 5 3 6
2 13 -4 17 -6 4 -8 11 -4 16 7 12 17 4 20 -16z"/>
<path d="M2315 2920 c-3 -5 -1 -10 4 -10 6 0 11 5 11 10 0 6 -2 10 -4 10 -3 0
-8 -4 -11 -10z"/>
<path d="M2970 2840 c-8 -5 -10 -10 -5 -10 6 0 17 5 25 10 8 5 11 10 5 10 -5
0 -17 -5 -25 -10z"/>
<path d="M2913 2802 c10 -10 17 -26 17 -34 0 -9 6 -19 13 -21 9 -4 8 -6 -2 -6
-11 -1 -11 -4 0 -17 15 -19 15 -16 24 -136 7 -92 7 -94 -16 -106 -23 -12 -23
-12 -1 -6 12 3 22 1 22 -5 0 -6 -8 -11 -17 -11 -15 0 -16 -2 -3 -10 9 -6 11
-10 3 -10 -7 0 -10 -6 -7 -14 3 -9 -5 -22 -21 -32 -24 -16 -25 -18 -9 -35 15
-16 14 -17 -4 -12 -22 5 -33 -7 -37 -44 -1 -14 -8 -29 -15 -33 -6 -4 -12 -11
-12 -16 -1 -17 -25 -44 -33 -36 -5 4 -5 1 -1 -5 4 -7 4 -13 -1 -13 -4 0 -24
-14 -43 -31 l-35 -31 33 18 c90 51 189 193 210 304 17 86 5 256 -19 271 -6 3
-10 9 -10 13 4 31 -17 76 -37 76 -13 0 -13 -2 1 -18z m37 -416 c0 -3 -4 -8
-10 -11 -5 -3 -10 -1 -10 4 0 6 5 11 10 11 6 0 10 -2 10 -4z m-30 -51 c0 -2
-10 -10 -22 -16 -21 -11 -22 -11 -9 4 13 16 31 23 31 12z"/>
<path d="M1965 2679 c-4 -6 -5 -12 -2 -15 2 -3 7 2 10 11 7 17 1 20 -8 4z"/>
<path d="M2630 2510 c-9 -6 -10 -10 -3 -10 6 0 15 5 18 10 8 12 4 12 -15 0z"/>
<path d="M2646 2495 c-20 -15 -20 -15 0 -30 24 -18 31 -18 41 -2 11 17 10 31
-2 39 -14 10 -17 10 -39 -7z m18 -10 c-5 -11 -1 -14 12 -9 16 5 16 4 4 -5 -17
-12 -36 1 -26 18 10 16 16 13 10 -4z"/>
<path d="M1931 2454 c0 -11 3 -14 6 -6 3 7 2 16 -1 19 -3 4 -6 -2 -5 -13z"/>
<path d="M1974 2445 c13 -52 76 -169 111 -208 19 -21 35 -34 35 -29 0 4 -8 17
-18 28 -10 11 -17 24 -15 30 2 5 -5 19 -15 29 -19 21 -36 55 -34 68 1 4 -4 6
-10 5 -7 -2 -12 3 -10 11 2 7 -5 22 -14 32 -9 10 -13 22 -10 27 3 5 -2 16 -11
23 -15 13 -16 11 -9 -16z"/>
<path d="M1910 2391 c0 -6 4 -13 10 -16 6 -3 7 1 4 9 -7 18 -14 21 -14 7z"/>
<path d="M2060 2141 c0 -6 5 -13 10 -16 6 -3 10 1 10 9 0 9 -4 16 -10 16 -5 0
-10 -4 -10 -9z"/>
<path d="M2715 2070 c-3 -5 1 -10 9 -10 8 0 18 5 21 10 3 6 -1 10 -9 10 -8 0
-18 -4 -21 -10z"/>
<path d="M4051 3364 c0 -11 3 -14 6 -6 3 7 2 16 -1 19 -3 4 -6 -2 -5 -13z"/>
<path d="M1490 3440 c0 -11 2 -20 4 -20 2 0 6 9 9 20 3 11 1 20 -4 20 -5 0 -9
-9 -9 -20z"/>
<path d="M1539 3413 c-1 -4 -1 -16 0 -25 3 -26 -24 -22 -37 5 -9 19 -11 16
-11 -24 -1 -33 3 -49 14 -53 19 -7 45 3 46 18 0 6 2 26 3 44 1 18 -1 35 -6 38
-4 3 -9 2 -9 -3z m-1 -65 c-3 -7 -11 -13 -18 -13 -7 0 -15 6 -17 13 -3 7 4 12
17 12 13 0 20 -5 18 -12z"/>
<path d="M1680 3501 c0 -23 14 -41 31 -41 25 0 24 26 0 40 -24 12 -31 13 -31
1z"/>
<path d="M583 3322 c-7 -5 -9 -13 -4 -21 7 -11 11 -9 20 8 12 21 6 27 -16 13z"/>
<path d="M4350 3264 c0 -8 7 -22 15 -31 8 -8 13 -19 10 -24 -13 -20 36 -7 60
16 29 30 34 47 7 22 -10 -10 -25 -17 -33 -17 -10 1 -10 4 4 14 15 11 15 15 3
25 -10 8 -16 9 -21 1 -3 -5 -13 -10 -21 -10 -8 0 -12 5 -9 10 3 6 1 10 -4 10
-6 0 -11 -7 -11 -16z"/>
<path d="M4521 3336 c2 -2 18 -6 34 -10 22 -5 26 -4 15 4 -14 9 -59 15 -49 6z"/>
<path d="M930 2840 c-12 -8 -10 -10 8 -10 13 0 20 4 17 10 -7 12 -6 12 -25 0z"/>
<path d="M4247 2983 c5 -12 2 -15 -10 -10 -11 4 -20 -1 -28 -14 -9 -18 -8 -20
8 -15 10 3 31 8 46 12 28 6 28 7 8 25 -25 23 -32 24 -24 2z"/>
<path d="M4360 2967 c-25 -9 -35 -18 -36 -34 0 -17 3 -20 15 -13 15 9 67 61
60 59 -2 0 -20 -6 -39 -12z"/>
<path d="M4398 2951 c-17 -20 -16 -21 2 -31 11 -6 20 -17 20 -24 0 -15 21 -26
51 -26 12 0 16 5 13 15 -4 8 -11 12 -17 8 -6 -3 -7 -1 -3 5 4 6 -6 25 -21 42
-28 31 -28 31 -45 11z"/>
<path d="M4460 2819 c-13 -9 -12 -10 3 -5 9 3 17 1 17 -4 0 -6 -4 -10 -10 -10
-5 0 -10 -9 -10 -21 0 -28 24 -19 28 10 5 29 -9 43 -28 30z"/>
<path d="M4500 2691 c0 -10 19 -25 25 -20 1 2 -3 10 -11 17 -8 7 -14 8 -14 3z"/>
<path d="M4295 2570 c-3 -5 -1 -10 4 -10 6 0 11 5 11 10 0 6 -2 10 -4 10 -3 0
-8 -4 -11 -10z"/>
<path d="M4400 2560 l-35 -7 37 -2 c20 0 40 4 43 9 7 11 7 11 -45 0z"/>
<path d="M4290 2535 c0 -10 40 -84 47 -88 5 -3 24 -7 43 -9 33 -3 35 -1 51 42
17 44 17 45 -5 52 -26 8 -136 10 -136 3z m100 -53 c0 -13 -12 -22 -22 -16 -10
6 -1 24 13 24 5 0 9 -4 9 -8z"/>
<path d="M1310 2610 c0 -11 7 -20 15 -20 8 0 15 9 15 20 0 11 -7 20 -15 20 -8
0 -15 -9 -15 -20z"/>
<path d="M501 2394 c0 -11 3 -14 6 -6 3 7 2 16 -1 19 -3 4 -6 -2 -5 -13z"/>
<path d="M337 2371 c3 -11 13 -27 23 -36 18 -16 18 -15 2 19 -18 38 -33 48
-25 17z"/>
<path d="M461 2373 c-1 -12 -7 -24 -13 -26 -10 -4 -10 -6 0 -6 15 -1 26 23 19
41 -3 7 -6 3 -6 -9z"/>
<path d="M380 2372 c0 -10 22 -32 32 -32 5 0 3 9 -4 20 -13 20 -28 27 -28 12z"/>
<path d="M472 2338 c-6 -6 -28 -14 -49 -18 l-38 -8 36 -1 c34 -1 80 21 68 33
-3 3 -10 1 -17 -6z"/>
<path d="M3877 2270 c3 -11 9 -17 14 -15 10 7 1 35 -11 35 -5 0 -6 -9 -3 -20z"/>
<path d="M3710 2221 c0 -5 5 -13 10 -16 6 -3 10 -2 10 4 0 5 -4 13 -10 16 -5
3 -10 2 -10 -4z"/>
<path d="M1180 2311 c-5 -11 -10 -29 -10 -40 0 -18 6 -21 45 -21 35 0 45 4 45
16 0 12 -4 14 -12 7 -7 -5 -23 -10 -35 -11 -18 -1 -23 5 -23 24 0 13 5 24 10
24 6 0 10 5 10 10 0 17 -19 11 -30 -9z"/>
<path d="M1220 2322 c0 -5 7 -13 16 -16 10 -4 14 -1 12 6 -5 15 -28 23 -28 10z"/>
<path d="M1201 2284 c0 -11 3 -14 6 -6 3 7 2 16 -1 19 -3 4 -6 -2 -5 -13z"/>
<path d="M1221 2284 c0 -11 3 -14 6 -6 3 7 2 16 -1 19 -3 4 -6 -2 -5 -13z"/>
<path d="M4170 2203 c1 -33 25 -70 35 -54 3 6 1 11 -5 11 -6 0 -8 5 -5 11 9
14 -3 59 -15 59 -6 0 -10 -12 -10 -27z"/>
<path d="M4306 2182 c-36 -26 -66 -50 -66 -54 0 -5 64 -8 142 -8 78 0 138 4
133 8 -33 29 -103 81 -121 90 -19 10 -31 5 -88 -36z m104 9 c8 -16 6 -23 -11
-35 -24 -16 -45 -12 -53 11 -15 37 45 59 64 24z m40 -31 c0 -5 -4 -10 -10 -10
-5 0 -10 5 -10 10 0 6 5 10 10 10 6 0 10 -4 10 -10z m-140 -20 c0 -5 -10 -10
-22 -10 -19 0 -20 2 -8 10 19 13 30 13 30 0z m35 0 c3 -6 -1 -7 -9 -4 -18 7
-21 14 -7 14 6 0 13 -4 16 -10z m103 -7 c-10 -2 -26 -2 -35 0 -10 3 -2 5 17 5
19 0 27 -2 18 -5z"/>
<path d="M4371 2174 c0 -11 3 -14 6 -6 3 7 2 16 -1 19 -3 4 -6 -2 -5 -13z"/>
<path d="M3635 2049 c-3 -3 3 -13 13 -20 9 -7 14 -9 10 -5 -4 5 -3 14 2 21 7
8 5 12 -6 12 -8 0 -17 -4 -19 -8z"/>
<path d="M3595 2000 c3 -5 10 -10 16 -10 5 0 9 5 9 10 0 6 -7 10 -16 10 -8 0
-12 -4 -9 -10z"/>
<path d="M3540 1951 c0 -5 5 -13 10 -16 6 -3 10 -2 10 4 0 5 -4 13 -10 16 -5
3 -10 2 -10 -4z"/>
<path d="M3636 1937 c3 -10 9 -15 12 -12 3 3 0 11 -7 18 -10 9 -11 8 -5 -6z"/>
<path d="M3570 1931 c0 -5 5 -13 10 -16 6 -3 10 -2 10 4 0 5 -4 13 -10 16 -5
3 -10 2 -10 -4z"/>
<path d="M4200 1929 c0 -5 5 -7 10 -4 6 3 10 8 10 11 0 2 -4 4 -10 4 -5 0 -10
-5 -10 -11z"/>
<path d="M2077 1733 c-9 -9 -9 -43 1 -44 4 0 18 -2 31 -5 20 -4 23 -1 17 18
-3 13 -6 26 -6 31 0 9 -34 9 -43 0z"/>
<path d="M420 1761 c0 -12 6 -21 16 -21 9 0 14 7 12 17 -5 25 -28 28 -28 4z"/>
<path d="M1576 1767 c3 -10 9 -15 12 -12 3 3 0 11 -7 18 -10 9 -11 8 -5 -6z"/>
<path d="M1610 1751 c0 -6 4 -13 10 -16 6 -3 7 1 4 9 -7 18 -14 21 -14 7z"/>
<path d="M1588 1713 c7 -3 16 -2 19 1 4 3 -2 6 -13 5 -11 0 -14 -3 -6 -6z"/>
<path d="M1582 1675 c15 -16 20 -17 30 -6 11 11 10 13 0 7 -7 -4 -21 -2 -30 5
-15 12 -15 11 0 -6z"/>
<path d="M902 1638 c-17 -17 -15 -35 4 -42 22 -8 33 2 15 14 -8 4 -11 15 -8
24 8 19 5 20 -11 4z"/>
<path d="M3908 1453 c6 -2 18 -2 25 0 6 3 1 5 -13 5 -14 0 -19 -2 -12 -5z"/>
<path d="M4336 1483 c-9 -16 -16 -21 -16 -13 0 12 -3 11 -11 -3 -14 -24 -3
-37 32 -37 17 0 28 -5 27 -12 -2 -6 6 -13 17 -15 15 -3 17 -2 6 5 -7 6 -10 15
-6 21 5 9 10 9 21 0 11 -9 19 -8 34 6 11 10 20 25 20 34 -1 14 -2 14 -14 -1
-17 -23 -26 -23 -26 1 0 11 -4 23 -10 26 -5 3 -7 0 -4 -8 4 -10 -4 -16 -26
-19 -29 -4 -31 -3 -27 19 6 30 1 29 -17 -4z"/>
<path d="M1627 1363 c-4 -3 -7 -28 -7 -55 0 -47 1 -48 30 -48 30 0 31 0 44 72
3 11 -1 15 -10 11 -10 -4 -12 0 -8 11 5 12 0 16 -18 16 -14 0 -28 -3 -31 -7z"/>
<path d="M2726 1321 c-10 -11 -16 -26 -13 -33 4 -10 6 -10 6 1 1 8 8 23 18 33
9 10 14 18 11 18 -3 0 -13 -9 -22 -19z"/>
<path d="M2808 1303 c7 -3 16 -2 19 1 4 3 -2 6 -13 5 -11 0 -14 -3 -6 -6z"/>
<path d="M2783 1280 c-25 -10 -29 -30 -13 -61 12 -22 59 -26 78 -7 21 21 13
31 -18 25 -30 -6 -60 0 -60 12 0 3 20 6 44 5 33 0 43 3 39 13 -3 7 -9 10 -14
7 -5 -3 -9 0 -9 5 0 13 -17 13 -47 1z"/>
<path d="M2710 1211 c0 -6 4 -13 10 -16 6 -3 7 1 4 9 -7 18 -14 21 -14 7z"/>
<path d="M1885 1261 c6 -11 4 -13 -8 -8 -10 3 -17 2 -17 -3 0 -6 7 -10 16 -10
9 0 12 -5 8 -12 -4 -6 -3 -8 4 -5 12 8 10 32 -3 44 -4 5 -5 2 0 -6z"/>
<path d="M1875 1210 l-30 -8 27 -1 c15 0 30 4 33 9 3 6 5 9 3 9 -2 -1 -16 -5
-33 -9z"/>
<path d="M1293 1283 c-17 -6 -17 -23 0 -23 8 0 14 7 14 15 0 8 -1 15 -1 14 -1
0 -7 -3 -13 -6z"/>
<path d="M976 1272 c-2 -4 4 -9 15 -9 11 -1 17 2 14 8 -7 11 -22 12 -29 1z"/>
<path d="M1020 1270 c0 -6 7 -10 15 -10 8 0 15 2 15 4 0 2 -7 6 -15 10 -8 3
-15 1 -15 -4z"/>
<path d="M1068 1273 c6 -2 18 -2 25 0 6 3 1 5 -13 5 -14 0 -19 -2 -12 -5z"/>
<path d="M1111 1276 c11 -9 99 -15 99 -6 0 6 -23 10 -52 10 -28 0 -49 -2 -47
-4z"/>
<path d="M2532 1023 c-6 -3 -10 -9 -6 -14 3 -5 0 -9 -5 -9 -6 0 -11 -4 -11 -8
0 -12 38 -8 51 5 12 12 -10 33 -29 26z"/>
<path d="M1232 1044 c9 -9 128 -11 128 -2 0 4 -30 8 -67 8 -36 0 -64 -2 -61
-6z"/>
<path d="M1177 1003 c18 -2 50 -2 70 0 21 2 7 4 -32 4 -38 0 -55 -2 -38 -4z"/>
<path d="M3880 930 c0 -5 5 -10 10 -10 6 0 10 5 10 10 0 6 -4 10 -10 10 -5 0
-10 -4 -10 -10z"/>
<path d="M3916 905 c-3 -9 0 -15 9 -15 16 0 20 16 6 24 -5 3 -11 -1 -15 -9z"/>
<path d="M1856 489 c3 -6 1 -15 -5 -19 -9 -5 -8 -10 4 -20 13 -11 15 -8 15 19
0 17 -5 31 -11 31 -5 0 -7 -5 -3 -11z"/>
<path d="M3393 633 c9 -2 25 -2 35 0 9 3 1 5 -18 5 -19 0 -27 -2 -17 -5z"/>
<path d="M3367 608 c-11 -6 -17 -22 -17 -43 0 -34 1 -35 40 -35 34 0 40 3 40
21 0 45 -32 75 -63 57z m43 -39 c0 -12 -7 -19 -19 -19 -22 0 -34 23 -19 38 15
15 38 3 38 -19z"/>
<path d="M2526 448 c-33 -34 -31 -40 12 -32 25 5 32 12 32 30 0 34 -12 35 -44
2z"/>
<path d="M1385 4545 c-43 -42 -29 -106 28 -130 42 -17 80 -3 99 38 39 83 -63
157 -127 92z m105 -7 c41 -49 13 -108 -51 -108 -21 0 -39 4 -39 9 0 5 -6 16
-14 24 -12 12 -12 19 3 53 15 33 23 40 50 42 23 2 38 -4 51 -20z"/>
<path d="M3690 4560 c-9 -6 -10 -10 -3 -10 6 0 15 5 18 10 8 12 4 12 -15 0z"/>
<path d="M937 4373 c-3 -5 -1 -17 4 -28 7 -17 8 -17 8 8 1 27 -4 34 -12 20z"/>
</g>
</svg>
